<?xml version="1.0" encoding="UTF-8"?>
<svg version="1.1" xmlns="http://www.w3.org/2000/svg" width="755" height="567">
<path d="M0 0 C249.15 0 498.3 0 755 0 C755 187.11 755 374.22 755 567 C505.85 567 256.7 567 0 567 C0 379.89 0 192.78 0 0 Z " fill="#FEFEFE" transform="translate(0,0)"/>
<path d="M0 0 C-0.44299815 3.69165126 -0.89544707 7.36620842 -1.50073242 11.03540039 C-3.03070983 20.55763258 -3.35886132 29.82165498 -3.3125 39.4375 C-3.31067719 40.22480499 -3.30885437 41.01210999 -3.30697632 41.82327271 C-3.23252244 61.00157271 -0.85262288 79.04198265 3.9140625 97.62890625 C4.79391032 101.06650265 5.48732715 104.48534283 6 108 C-0.53151917 112.21007561 -7.2684941 115.91050523 -14.125 119.5625 C-16.45465131 120.81077953 -18.78407479 122.05948435 -21.11328125 123.30859375 C-22.85279053 124.24034424 -22.85279053 124.24034424 -24.62744141 125.19091797 C-40.22300217 133.55656914 -55.68728447 142.12707061 -71 151 C-72.10794922 151.64098633 -73.21589844 152.28197266 -74.35742188 152.94238281 C-98.40649675 166.86904759 -121.98934832 181.40442318 -145 197 C-145.7105957 197.47888672 -146.42119141 197.95777344 -147.15332031 198.45117188 C-177.01005935 218.58412359 -205.69629354 240.82345965 -232.10546875 265.32421875 C-233.94916292 267.02857841 -235.80478213 268.72019189 -237.67578125 270.39453125 C-244.60153884 276.61497831 -251.22136219 283.11515333 -257.8125 289.6875 C-259.15622681 291.02433838 -259.15622681 291.02433838 -260.52709961 292.38818359 C-265.02961736 296.90120064 -269.40210526 301.46335865 -273.53393555 306.31958008 C-275 308 -275 308 -276.68432617 309.6015625 C-278.20242536 310.91358337 -278.20242536 310.91358337 -278.1015625 312.91796875 C-274.34564498 330.80475627 -264.17341939 348.70634381 -253 363 C-246.7672301 359.46685299 -240.65414016 355.80192327 -234.63012695 351.92626953 C-220.7809764 343.03001755 -206.49313102 334.740547 -191.78125 327.34765625 C-182.05209196 322.45524057 -173.51820025 317.01384565 -165.02734375 310.17578125 C-147.75809931 296.33979899 -128.21173036 283.97347988 -109 273 C-108.19272461 272.53352051 -107.38544922 272.06704102 -106.55371094 271.58642578 C-58.16153152 243.6435043 -6.43014722 219.64233879 47.57373047 204.68017578 C50.266572 203.92526971 52.94725424 203.13355499 55.62890625 202.33984375 C67.61921009 198.83382188 79.67229315 195.84085302 91.875 193.1875 C92.55091187 193.04047638 93.22682373 192.89345276 93.92321777 192.74197388 C117.46819001 187.64692919 117.46819001 187.64692919 124 188 C120.53905453 190.30729698 117.13924814 191.20352264 113.1875 192.3125 C61.17135319 207.49225215 10.28502073 227.92169119 -38.51591492 251.3734436 C-42.18971203 253.13853744 -45.87281655 254.87951427 -49.57421875 256.5859375 C-61.68875837 262.17848804 -73.36029307 268.48225602 -85 275 C-85.9060498 275.50466797 -86.81209961 276.00933594 -87.74560547 276.52929688 C-99.79647116 283.25475756 -111.51238584 290.35162779 -123 298 C-117.97857104 297.18543555 -113.25764245 295.5148914 -108.4375 293.9375 C-71.27233109 282.02360322 -33.47555408 273.42558992 5 267 C5.80550293 266.86484985 6.61100586 266.72969971 7.44091797 266.5904541 C33.52153643 262.22153681 59.65871713 258.45506364 85.88240051 255.05786133 C96.11350848 253.73109472 106.33549061 252.33800566 116.55758667 250.94378662 C125.4832546 249.72732885 134.41236515 248.5597917 143.35424805 247.46826172 C147.08001335 246.98972306 150.78700706 246.44336018 154.5 245.875 C159.41039752 245.15585711 164.04443102 244.80177724 169 245 C169.02578125 244.33097656 169.0515625 243.66195312 169.078125 242.97265625 C170.55571858 217.9543104 181.11088727 194.51638548 194.125 173.4375 C194.52050049 172.79474121 194.91600098 172.15198242 195.32348633 171.48974609 C198.18137824 166.98050992 201.43370428 162.96840053 205 159 C203.741875 158.62875 202.48375 158.2575 201.1875 157.875 C197.76229687 156.86083371 194.36509086 155.79292533 190.984375 154.640625 C177.8739147 150.233869 164.60436466 147.43151382 151 145 C150.06784668 144.83048828 149.13569336 144.66097656 148.17529297 144.48632812 C134.0590727 142.01460705 120.19296026 140.68690025 105.87109375 140.734375 C104.38346799 140.73301957 102.89584267 140.73107186 101.40821838 140.72857666 C98.31498937 140.72566008 95.2218773 140.72980493 92.12866211 140.73925781 C88.24177507 140.75058189 84.35516387 140.74391494 80.46828651 140.73239422 C56.80520736 140.67255648 33.62188844 141.76818 10.25 145.6875 C8.09932094 146.04626951 5.94837551 146.40206151 3.79559326 146.7480011 C1.89667142 147.05315948 -0.00047416 147.3693141 -1.89746094 147.6862793 C-4.6802164 147.96766431 -6.39754716 147.92052705 -9 147 C19.8994577 137.18244015 48.68970196 129.16922944 79 125 C79.81082031 124.88140625 80.62164063 124.7628125 81.45703125 124.640625 C121.19969743 118.95342916 161.64974477 124.10395974 200 135 C200.89460937 135.24363281 201.78921875 135.48726562 202.7109375 135.73828125 C209.37973625 137.62111244 215.64051699 140.26757218 222 143 C224.53795248 144.07161452 227.07761903 145.13910112 229.61743164 146.20629883 C233.41290592 147.80115128 237.20641441 149.40066151 241 151 C239.38815909 154.36411069 237.47797632 156.97041019 235.125 159.875 C221.56456774 177.40926754 211.63457869 199.5377248 205.0703125 220.640625 C204.29366553 223.07827608 203.46262268 225.40016348 202.52734375 227.7734375 C200.71695699 232.53713195 199.57683432 237.41512189 198.4375 242.375 C198.22931641 243.25671875 198.02113281 244.1384375 197.80664062 245.046875 C195.01524085 256.70263091 195.01524085 256.70263091 193.4375 268.5625 C193.10641892 272.89358108 193.10641892 272.89358108 192 274 C190.63821875 274.17932033 189.26804896 274.29554015 187.89746094 274.38549805 C187.01094345 274.44638107 186.12442596 274.5072641 185.21104431 274.56999207 C183.737593 274.66489677 183.737593 274.66489677 182.234375 274.76171875 C180.09282599 274.9090869 177.95130726 275.05689551 175.80981445 275.20507812 C174.66243805 275.28314697 173.51506165 275.36121582 172.33291626 275.44165039 C123.48297369 278.79359569 73.99865922 282.33839959 25.69335938 290.55517578 C21.7153935 291.21216036 17.72946416 291.81573591 13.74406433 292.42572021 C-18.08899892 297.14092295 -18.08899892 297.14092295 -49.47265625 304.11328125 C-53.03118724 305.00783998 -56.57347162 305.68147917 -60.1875 306.3125 C-81.11965091 310.03554669 -101.6835536 315.80501067 -122 322 C-123.64307129 322.49765869 -123.64307129 322.49765869 -125.31933594 323.00537109 C-147.80349258 329.40620743 -147.80349258 329.40620743 -169.51806641 337.9206543 C-172.42383776 339.18431898 -175.37343526 340.21544709 -178.3671875 341.25390625 C-185.86630967 343.91311431 -193.22667356 346.85583166 -200.5625 349.9375 C-201.2147757 350.2102475 -201.86705139 350.482995 -202.53909302 350.76400757 C-217.29619149 356.95194984 -231.67412799 363.87816083 -246 371 C-240.90649564 378.00466245 -235.3665698 384.11659871 -229 390 C-228.15477783 390.79083984 -228.15477783 390.79083984 -227.29248047 391.59765625 C-225.53834452 393.20864694 -223.74759902 394.76484552 -221.9375 396.3125 C-221.39673828 396.81112549 -220.85597656 397.30975098 -220.29882812 397.82348633 C-217.73831856 399.92649085 -216.06945206 401.04696918 -212.6875 400.8984375 C-210.08680207 400.37505211 -207.55864446 399.69881878 -205 399 C-203.38121068 398.71562465 -201.75857585 398.45227071 -200.1328125 398.2109375 C-190.12292475 396.57788645 -181.09408965 394.18330598 -171.75708008 390.21777344 C-165.03851365 387.36735245 -158.23801324 384.92624441 -151.3125 382.625 C-149.82496216 382.12468262 -149.82496216 382.12468262 -148.30737305 381.61425781 C-143.39652417 379.99492173 -138.54581093 378.61830952 -133.48413086 377.57202148 C-130.37220308 376.85543703 -127.32978169 375.95747239 -124.265625 375.05859375 C-117.47780566 373.09441625 -110.67015575 371.48459127 -103.75 370.0625 C-102.52273193 369.81016602 -101.29546387 369.55783203 -100.03100586 369.29785156 C-90.2479143 367.34258256 -80.43030387 365.71416874 -70.5625 364.25 C-69.89335571 364.1492215 -69.22421143 364.04844299 -68.53479004 363.9446106 C-63.69828453 363.2228563 -58.85510306 362.58331422 -54 362 C-53.22371246 361.90570709 -52.44742493 361.81141418 -51.64761353 361.71426392 C-35.87909181 359.8691636 -20.12722019 359.65606338 -4.2722168 359.68432617 C-1.48168713 359.68893287 1.30840399 359.68210767 4.09887695 359.66381836 C24.25013972 359.53284864 43.97914777 360.66729846 64 363 C64 363.33 64 363.66 64 364 C62.906875 364.01458252 61.81375 364.02916504 60.6875 364.04418945 C-1.54717314 364.93340882 -63.09977338 370.80950848 -123.55078125 386.046875 C-124.21792145 386.21437256 -124.88506165 386.38187012 -125.57241821 386.55444336 C-129.4429233 387.5448364 -133.22517265 388.69239195 -137 390 C-133.5622229 389.71154764 -130.12484395 389.41856538 -126.6875 389.125 C-125.74970703 389.04636719 -124.81191406 388.96773438 -123.84570312 388.88671875 C-118.44136007 388.42297974 -113.04696893 387.90383109 -107.65499878 387.31536865 C-73.72084334 383.62763783 -39.75127427 381.60048607 -5.625 381.6875 C-4.37034943 381.69013855 -3.11569885 381.6927771 -1.82302856 381.69549561 C16.04361902 381.75811185 33.92140957 381.99311069 51.6875 384.0625 C52.50798828 384.15337891 53.32847656 384.24425781 54.17382812 384.33789062 C56.11643138 384.55373543 58.05831524 384.77604308 60 385 C59.98259766 386.03060547 59.98259766 386.03060547 59.96484375 387.08203125 C59.95582031 387.98308594 59.94679688 388.88414062 59.9375 389.8125 C59.92009766 391.15248047 59.92009766 391.15248047 59.90234375 392.51953125 C59.88990033 395.13413791 59.88990033 395.13413791 61 398 C61.66 398.33 62.32 398.66 63 399 C63.2578125 398.29875 63.515625 397.5975 63.78125 396.875 C69.83189464 382.60168443 80.80012176 369.4694514 92 359 C55.97234237 337.32285474 15.77635621 323.51432818 -25 314 C-25 313.67 -25 313.34 -25 313 C37.56221509 308.536963 95.07934785 316.71518293 144.9609375 357.02734375 C146.94097997 358.94290208 147.96931395 360.46858975 149 363 C148.17757812 363.60585938 147.35515625 364.21171875 146.5078125 364.8359375 C125.58916166 380.44461464 110.13428057 401.26390918 97.875 424.1875 C97.50874512 424.86981689 97.14249023 425.55213379 96.76513672 426.25512695 C94.60410003 430.42814554 93.14700709 434.44153368 92 439 C83.58953149 438.46667923 75.54197895 437.02492056 67.3125 435.25 C66.03938965 434.98123047 64.7662793 434.71246094 63.45458984 434.43554688 C59.63527445 433.62887085 55.81758395 432.81482431 52 432 C12.60494682 423.65538398 -26.66316202 416.26340108 -66.75 412.1875 C-67.78058533 412.0822702 -68.81117065 411.97704041 -69.87298584 411.86862183 C-76.57755649 411.19138096 -83.28508892 410.56568474 -90 410 C-90.72358704 409.93816528 -91.44717407 409.87633057 -92.19268799 409.81262207 C-107.47722644 408.5705439 -122.85565758 408.84718956 -138.17871094 408.86962891 C-142.10502872 408.87535523 -146.03127855 408.87201488 -149.95759392 408.86605644 C-153.02567036 408.86241665 -156.09373106 408.8636045 -159.16180801 408.86618423 C-160.60883721 408.86684251 -162.05586793 408.86606443 -163.50289536 408.86370468 C-171.15957313 408.85394111 -178.73802851 409.01486222 -186.36306763 409.77981567 C-190.5742958 410.13145398 -194.77788036 410.08406875 -199 410 C-199 410.66 -199 411.32 -199 412 C-197.72576172 412.40605469 -197.72576172 412.40605469 -196.42578125 412.8203125 C-192.93357021 414.02287548 -189.58548537 415.42888936 -186.1875 416.875 C-169.58931347 423.61943648 -151.41001162 427.79886307 -134.22265625 420.77734375 C-133.48917969 420.52082031 -132.75570313 420.26429688 -132 420 C-131.34 420.33 -130.68 420.66 -130 421 C-141.45682011 431.35383432 -154.07892916 432.80486172 -168.87109375 432.27734375 C-170.58103739 432.19078382 -172.29073396 432.09904287 -174 432 C-175.12535156 431.93941406 -176.25070312 431.87882812 -177.41015625 431.81640625 C-188.93188814 430.50380388 -200.91259068 424.8231784 -210.50537109 418.4765625 C-217.91189931 413.62630774 -222.91606039 413.43137882 -231.265625 415.140625 C-232.49796875 415.42421875 -233.7303125 415.7078125 -235 416 C-236.99967115 416.37674964 -238.99961722 416.75204728 -241 417.125 C-242.33469335 417.41037851 -243.66870239 417.69917794 -245 418 C-244.7834375 418.6084375 -244.566875 419.216875 -244.34375 419.84375 C-240.63861373 431.50806787 -240.22887021 443.53373559 -245.203125 454.8515625 C-248.67193164 460.929515 -253.19253358 465.95146487 -258 471 C-258.7422583 471.78769775 -258.7422583 471.78769775 -259.49951172 472.59130859 C-279.24660812 493.39501961 -305.12556078 513.65122838 -334.79394531 514.46679688 C-356.67380863 514.66966444 -376.75399333 510.02717886 -392.86328125 494.24609375 C-393.56839844 493.50488281 -394.27351563 492.76367188 -395 492 C-395.71542969 491.26910156 -396.43085938 490.53820312 -397.16796875 489.78515625 C-404.81987474 481.61642359 -409.76665755 472.69490195 -413 462 C-413.3403125 460.88625 -413.3403125 460.88625 -413.6875 459.75 C-417.64976563 443.90093749 -415.58890591 426.37325733 -408 412 C-407.07786625 414.56148263 -407.02088213 416.13255612 -407.44921875 418.8515625 C-410.23152402 437.11800146 -409.99762143 458.67003631 -399 474.25 C-397.68419854 475.84793264 -396.35332977 477.43372393 -395 479 C-394.278125 480.051875 -393.55625 481.10375 -392.8125 482.1875 C-382.3317517 492.6682483 -368.55534513 497.30061695 -353.9375 497.5 C-341.63981883 497.35747077 -329.24101392 493.9341913 -320.15625 485.234375 C-318.65189116 483.53828415 -317.29145231 481.86274897 -316 480 C-315.45988281 479.26394531 -314.91976562 478.52789062 -314.36328125 477.76953125 C-312.62155791 474.23118784 -312.55927375 471.10593996 -312.625 467.25 C-312.61339844 466.58484375 -312.60179687 465.9196875 -312.58984375 465.234375 C-312.64077892 456.40561283 -316.20148366 449.03467782 -320.5 441.5 C-320.9336084 440.72809326 -321.3672168 439.95618652 -321.81396484 439.16088867 C-324.89508235 433.74827842 -328.19844214 428.51153909 -331.625 423.3125 C-340.43045437 409.91477156 -351.21644855 393.30279761 -351.09765625 376.671875 C-351.09443359 375.87265625 -351.09121094 375.0734375 -351.08789062 374.25 C-351.07532227 373.0125 -351.07532227 373.0125 -351.0625 371.75 C-351.05798828 370.90953125 -351.05347656 370.0690625 -351.04882812 369.203125 C-351.03707961 367.13538599 -351.01914522 365.06768376 -351 363 C-347.80370215 364.59814892 -347.22475689 367.95343373 -345.9375 371.125 C-334.01707246 399.1715878 -313.32112565 423.3251084 -285.1796875 435.72265625 C-278.66214952 438.34088097 -271.86773498 439.34639404 -265.125 436.8125 C-261.59561028 434.76545396 -260.47760171 433.77609325 -259 430 C-258.77285212 428.44506642 -258.5852114 426.88403464 -258.4296875 425.3203125 C-258.34702637 424.51094238 -258.26436523 423.70157227 -258.17919922 422.86767578 C-258.12006348 422.25134277 -258.06092773 421.63500977 -258 421 C-261.31415442 421.7638285 -264.62597286 422.53736722 -267.9375 423.3125 C-268.86369141 423.52583984 -269.78988281 423.73917969 -270.74414062 423.95898438 C-276.00837168 425.19654045 -281.06803641 426.61681639 -286.12719727 428.53588867 C-288 429 -288 429 -291 428 C-287.71238668 426.55310531 -284.41921805 425.11928615 -281.125 423.6875 C-280.2071875 423.28337891 -279.289375 422.87925781 -278.34375 422.46289062 C-272.32857669 419.85772753 -266.32307934 417.72986664 -260 416 C-262.1432238 408.73685267 -265.24692605 402.55849672 -269 396 C-269.96031503 394.27193311 -270.91882064 392.54285868 -271.875 390.8125 C-272.5828878 389.54141844 -273.29103897 388.27048327 -274 387 C-277.69591067 388.35781664 -280.82998287 390.03836196 -284.125 392.1875 C-285.07890625 392.80367188 -286.0328125 393.41984375 -287.015625 394.0546875 C-288.49289062 395.01761719 -288.49289062 395.01761719 -290 396 C-291.9557427 397.27481658 -293.91399336 398.54579571 -295.875 399.8125 C-296.73867188 400.37582031 -297.60234375 400.93914062 -298.4921875 401.51953125 C-300.93732682 402.96300135 -303.33872705 404.0222922 -306 405 C-302.21336143 401.11333701 -298.24897332 397.5246106 -294.125 394 C-293.53847656 393.49210937 -292.95195312 392.98421875 -292.34765625 392.4609375 C-281.30989583 383 -281.30989583 383 -278 383 C-280.28538605 378.91036181 -282.95706926 375.53637896 -286 372 C-285.67 371.34 -285.34 370.68 -285 370 C-283.66070495 371.28548409 -282.32871357 372.57858155 -281 373.875 C-280.2575 374.59429687 -279.515 375.31359375 -278.75 376.0546875 C-277 378 -277 378 -277 380 C-272.79766566 377.58047417 -268.92072351 374.84444647 -265 372 C-266.31112934 369.29028265 -267.73972916 366.73814645 -269.35546875 364.19921875 C-288 334.54648022 -288 334.54648022 -288 324 C-288.66 324 -289.32 324 -290 324 C-290.23074219 324.53367187 -290.46148437 325.06734375 -290.69921875 325.6171875 C-292.39974196 328.73226004 -294.58710721 331.3780369 -296.8125 334.125 C-306.19763685 345.91493091 -315.07460892 358.03901582 -322.84204102 370.96240234 C-324.65219126 373.95789522 -326.33295804 376.6981899 -329 379 C-327.4114858 373.67933147 -325.11275566 368.87960237 -322.625 363.9375 C-322.18655762 363.06552979 -321.74811523 362.19355957 -321.29638672 361.29516602 C-318.0549313 354.92326392 -314.65464394 348.65397411 -311.125 342.4375 C-310.63177246 341.55690918 -310.13854492 340.67631836 -309.63037109 339.76904297 C-307.17154626 335.45995047 -304.63268338 331.41497535 -301.5703125 327.5078125 C-293.14157296 316.43914194 -291.8594763 307.74723529 -292.73925781 293.84399414 C-293.5674369 280.56405442 -290.34623667 269.49380633 -282 259 C-274.85657686 251.61885895 -274.85657686 251.61885895 -270 250 C-271.37906409 252.94948157 -273.01305493 255.44270836 -274.9375 258.0625 C-281.99370325 268.50912286 -282.58232145 281.75412239 -282 294 C-281.67 294.66 -281.34 295.32 -281 296 C-280.38253906 295.18917969 -279.76507813 294.37835938 -279.12890625 293.54296875 C-278.27357208 292.42437625 -277.41809193 291.30589536 -276.5625 290.1875 C-276.1080249 289.59074463 -275.6535498 288.99398926 -275.18530273 288.37915039 C-272.42750851 284.7802553 -269.55695812 281.34423858 -266.5625 277.9375 C-261.34740837 271.62449434 -257.74126565 264.53593468 -253.8984375 257.34765625 C-247.00070333 244.48679557 -239.30928711 231.9942753 -231 220 C-230.49742676 219.26813477 -229.99485352 218.53626953 -229.47705078 217.78222656 C-222.43032923 207.52838239 -215.26547962 197.4334017 -207.43017578 187.765625 C-205.86135242 185.82883248 -204.30373519 183.88329453 -202.74609375 181.9375 C-197.32357994 175.18787452 -191.83811918 168.54452691 -185.98046875 162.1640625 C-184.09159671 160.10008792 -182.2605374 157.99709746 -180.4375 155.875 C-177.43373172 152.42031962 -174.23350121 149.2144877 -170.97265625 146.00390625 C-169.0425437 144.04321766 -167.23265102 142.02180286 -165.4375 139.9375 C-161.04578938 134.8502696 -156.39206356 130.16122511 -151.296875 125.77734375 C-146.97480684 122.01398802 -142.83184533 118.08170202 -138.6875 114.125 C-132.33951897 108.11343587 -125.87092731 102.41170083 -119 97 C-117.87488956 96.08506761 -116.75128505 95.16828134 -115.62890625 94.25 C-102.88702432 83.86715519 -89.51855301 74.34070874 -76 65 C-75.34 65.33 -74.68 65.66 -74 66 C-79.07196018 70.65388103 -84.18844153 75.19619894 -89.5625 79.5 C-93.87197787 82.98400042 -97.8087772 86.65968276 -101.63671875 90.6640625 C-103.56286274 92.56792053 -105.51236055 94.31614477 -107.56738281 96.07397461 C-112.34060177 100.23716705 -116.81359887 104.66963515 -121.28515625 109.15234375 C-122.575037 110.44078941 -122.575037 110.44078941 -123.89097595 111.75526428 C-125.69815861 113.56177015 -127.50409392 115.36952462 -129.30883789 117.1784668 C-132.05438393 119.9293681 -134.80522546 122.67489221 -137.55664062 125.41992188 C-139.3206332 127.18457532 -141.0843155 128.94953897 -142.84765625 130.71484375 C-143.66138199 131.52654526 -144.47510773 132.33824677 -145.31349182 133.17454529 C-149.53357399 137.41180334 -153.60602603 141.71899678 -157.49830627 146.26019287 C-159.87843759 149.01772549 -162.38339105 151.65612539 -164.875 154.3125 C-169.35420159 159.12755443 -173.6076977 164.06531844 -177.7265625 169.1953125 C-179.79159771 171.7428989 -181.89933152 174.24252565 -184.03222656 176.73291016 C-189.93897896 183.63506732 -195.55161198 190.73109434 -201 198 C-201.52996582 198.70398926 -202.05993164 199.40797852 -202.60595703 200.13330078 C-211.1442935 211.49906241 -219.23346721 223.09416127 -227 235 C-222.65749173 231.32194974 -218.4133618 227.56908731 -214.25 223.6875 C-208.68571154 218.55009448 -202.91444754 213.73155803 -197 209 C-195.88094186 208.08923981 -194.76248112 207.17774524 -193.64453125 206.265625 C-170.5163413 187.47219606 -145.9460255 170.52204251 -120.70751953 154.70458984 C-118.03408331 153.02145804 -115.37264001 151.32098549 -112.71484375 149.61328125 C-99.16479261 140.9124075 -85.43367768 132.52610102 -71.64941406 124.20410156 C-66.11264155 120.8610674 -60.58117918 117.50927891 -55.05126953 114.15490723 C-53.85744155 113.43089214 -52.66343321 112.70717434 -51.46923828 111.98376465 C-43.74012623 107.30123065 -36.03533791 102.58475001 -28.43847656 97.68969727 C-24.21377116 95 -24.21377116 95 -22 95 C-22.33773438 93.84886719 -22.67546875 92.69773437 -23.0234375 91.51171875 C-28.26594131 73.04251688 -30.11601139 55.0046523 -28.1875 35.875 C-28.11756836 35.14659912 -28.04763672 34.41819824 -27.97558594 33.66772461 C-27.32394664 27.88410131 -25.80962219 22.52305032 -24 17 C-71.84747449 21.9365911 -115.79910762 42.16023274 -156 68 C-158.84387252 69.81613377 -161.68896988 71.63033153 -164.53466797 73.44360352 C-166.52119175 74.71076927 -168.50595633 75.98069802 -170.48876953 77.25366211 C-171.40126465 77.83768799 -172.31375977 78.42171387 -173.25390625 79.0234375 C-174.07189697 79.54856934 -174.8898877 80.07370117 -175.73266602 80.61474609 C-177.78009617 81.86564721 -179.83647796 82.96614842 -182 84 C-178.37960616 79.56501754 -174.68758694 75.71393357 -170.328125 72.01171875 C-168.06211366 70.05367204 -165.86111028 68.0356387 -163.66845703 65.99609375 C-157.98015976 60.71268952 -152.16321059 55.72880608 -146 51 C-145.31969727 50.46890625 -144.63939453 49.9378125 -143.93847656 49.390625 C-115.79346234 27.45634877 -85.05059615 10.71262585 -50 3 C-49.28295898 2.83628906 -48.56591797 2.67257813 -47.82714844 2.50390625 C-32.08389125 -0.96118537 -16.02122727 -0.29979266 0 0 Z " fill="#050505" transform="translate(493,33)"/>
<path d="M0 0 C3.03312095 0.00016224 6.06563582 -0.01371857 9.09863281 -0.04101562 C47.56071108 -0.38142332 87.28735009 3.81805537 122.87524414 19.37060547 C121.52351941 22.31450597 119.95945019 24.5881209 117.87524414 27.05810547 C108.83428952 38.54765196 102.12489147 51.77586256 96.87524414 65.37060547 C96.60728027 66.06202637 96.33931641 66.75344727 96.06323242 67.46582031 C91.38473684 79.81286992 88.9172552 92.35232671 86.87524414 105.37060547 C70.91172449 107.90644347 54.92874669 110.00610341 38.87524414 111.87060547 C26.01115769 113.36644273 13.18887042 114.95817216 0.38793945 116.93237305 C-6.02192148 117.91967158 -12.43410912 118.80571279 -18.86889648 119.61425781 C-34.9302168 121.64764781 -50.89784301 124.20084973 -66.87475586 126.80810547 C-68.60538269 127.08888443 -68.60538269 127.08888443 -70.37097168 127.37533569 C-93.47621708 131.13265839 -116.48436421 135.26899399 -139.24975586 140.74560547 C-140.05382874 140.93758514 -140.85790161 141.12956482 -141.68634033 141.32736206 C-160.98831266 145.94530067 -179.90300884 151.40774236 -198.63989258 157.97045898 C-199.59138184 158.29844482 -200.54287109 158.62643066 -201.52319336 158.96435547 C-202.36543457 159.26019531 -203.20767578 159.55603516 -204.07543945 159.86083984 C-206.12475586 160.37060547 -206.12475586 160.37060547 -208.12475586 159.37060547 C-181.77738203 141.82955496 -154.11222655 126.32752087 -125.44018555 112.93554688 C-122.49394539 111.54486945 -119.56173076 110.12997587 -116.63354492 108.70195007 C-93.43473391 97.39709496 -69.68832755 87.71493624 -45.64694214 78.35446167 C-43.18788201 77.39522976 -40.73133729 76.42981811 -38.27539062 75.46264648 C-29.26786149 71.92305578 -20.22402859 68.55775354 -11.06225586 65.43310547 C-9.83853271 65.01343506 -8.61480957 64.59376465 -7.35400391 64.16137695 C7.96114205 58.93709302 23.36167942 53.97325221 38.87524414 49.37060547 C38.87524414 48.71060547 38.87524414 48.05060547 38.87524414 47.37060547 C42.17524414 47.04060547 45.47524414 46.71060547 48.87524414 46.37060547 C48.21524414 47.69060547 47.55524414 49.01060547 46.87524414 50.37060547 C43.87524414 51.37060547 43.87524414 51.37060547 40.90258789 51.67919922 C35.49320415 52.42138751 30.51883249 54.50917234 25.43774414 56.43310547 C24.28395264 56.86574707 23.13016113 57.29838867 21.94140625 57.74414062 C-19.32570516 73.30210884 -60.46951914 89.81493007 -99.31225586 110.80810547 C-100.16609863 111.26765625 -101.01994141 111.72720703 -101.8996582 112.20068359 C-107.93619544 115.52804116 -113.54627743 119.32663363 -119.12475586 123.37060547 C-111.18799453 121.84920967 -103.29296076 120.21851267 -95.42944336 118.35498047 C-94.3008213 118.08761581 -94.3008213 118.08761581 -93.1493988 117.81484985 C-91.57909236 117.44246668 -90.00881603 117.06995655 -88.43856812 116.69732666 C-74.1203164 113.3114001 -59.77461479 110.20280053 -45.31225586 107.49560547 C-44.57191101 107.3566687 -43.83156616 107.21773193 -43.06878662 107.07458496 C-26.66100124 104.00984259 -10.19471376 101.33634134 6.31274414 98.87060547 C9.19960285 98.43794004 12.086308 98.00426278 14.97290039 97.56982422 C15.66689941 97.46542526 16.36089844 97.36102631 17.07592773 97.25346375 C21.71957885 96.5522415 26.35604372 95.81427629 30.99023438 95.0534668 C55.15738404 91.09305132 55.15738404 91.09305132 65.87524414 91.37060547 C65.82883789 89.62650391 65.82883789 89.62650391 65.78149414 87.84716797 C65.78880321 83.68282398 66.39184161 79.78590317 67.37524414 75.74560547 C67.55047607 75.02469727 67.72570801 74.30378906 67.90625 73.56103516 C72.47729731 55.68534661 79.89516984 39.42844851 88.87524414 23.37060547 C88.27768311 23.26611084 87.68012207 23.16161621 87.06445312 23.05395508 C81.30948581 22.02901009 75.57494252 20.91986855 69.84790039 19.74951172 C46.47679504 14.87190869 46.47679504 14.87190869 22.87524414 11.37060547 C21.80322754 11.2367041 20.73121094 11.10280273 19.62670898 10.96484375 C-15.7218762 6.71995759 -51.59119349 8.08622003 -87.12475586 8.37060547 C-87.12475586 8.04060547 -87.12475586 7.71060547 -87.12475586 7.37060547 C-82.86625679 6.68362415 -78.60598107 6.00914945 -74.34399414 5.34423828 C-72.90698145 5.11848975 -71.47042094 4.88983584 -70.03442383 4.65771484 C-46.75152569 0.90081408 -23.54141452 -0.00648427 0 0 Z " fill="#EA9D4E" transform="translate(575.124755859375,172.62939453125)"/>
<path d="M0 0 C-0.28875 1.27875 -0.5775 2.5575 -0.875 3.875 C-5.31957523 26.22486402 -5.3948963 49.0848521 1.1953125 70.99609375 C2 74 2 74 2 78 C0.60839844 79.28588867 0.60839844 79.28588867 -1.390625 80.41796875 C-2.14811035 80.85850586 -2.9055957 81.29904297 -3.68603516 81.75292969 C-4.53214355 82.22633789 -5.37825195 82.69974609 -6.25 83.1875 C-8.09716909 84.25770926 -9.94347534 85.32940873 -11.7890625 86.40234375 C-12.79098633 86.97968262 -13.79291016 87.55702148 -14.82519531 88.15185547 C-19.87544656 91.09175103 -24.86498827 94.13114022 -29.8550415 97.17163086 C-31.64070979 98.25957139 -33.42741226 99.34579562 -35.21435547 100.43164062 C-54.02721102 111.86727986 -72.76582974 123.40779121 -91.30566406 135.28222656 C-94.04808151 137.03065436 -96.79989564 138.76333142 -99.5546875 140.4921875 C-123.63923478 155.6349012 -146.82234059 172.17562796 -169 190 C-169.928125 190.74507812 -170.85625 191.49015625 -171.8125 192.2578125 C-187.49797156 204.97614591 -187.49797156 204.97614591 -202 219 C-202.66 218.67 -203.32 218.34 -204 218 C-195.31757906 205.07998596 -186.50205236 192.33188823 -177 180 C-176.34644531 179.1440625 -175.69289063 178.288125 -175.01953125 177.40625 C-167.47440574 167.59931341 -159.48933114 158.14436403 -151.46777344 148.7265625 C-149.94552924 146.93592528 -148.42966056 145.14001437 -146.9140625 143.34375 C-142.09918051 137.65707798 -137.28355869 132.09242362 -131.91383362 126.91477966 C-130.12876304 125.12882669 -128.48962904 123.29076178 -126.85522461 121.36743164 C-122.65399295 116.53277732 -118.16183566 112.01804218 -113.62890625 107.49609375 C-112.74774643 106.6139772 -111.86658661 105.73186066 -110.95872498 104.82301331 C-108.6342325 102.49767191 -106.30734093 100.17476382 -103.97961426 97.85266113 C-102.56355322 96.43855176 -101.14945679 95.02250879 -99.73608398 93.60571289 C-96.99471744 90.8581328 -94.24986966 88.11407894 -91.50390625 85.37109375 C-90.67033096 84.53549423 -89.83675568 83.69989471 -88.97792053 82.838974 C-84.69192571 78.56991655 -80.3412726 74.44190876 -75.7485199 70.50354004 C-72.93967777 68.08823633 -70.22299374 65.57362816 -67.5 63.0625 C-66.96375 62.56943359 -66.4275 62.07636719 -65.875 61.56835938 C-64.58254526 60.37976261 -63.29115201 59.19001177 -62 58 C-61.34 58.33 -60.68 58.66 -60 59 C-60.65319969 59.64986877 -60.65319969 59.64986877 -61.31959534 60.31286621 C-65.88159869 64.85261951 -70.43997767 69.39598935 -74.99633789 73.94140625 C-76.69366667 75.63372911 -78.39189477 77.3251505 -80.09106445 79.015625 C-82.54359341 81.45592369 -84.99279096 83.89952506 -87.44140625 86.34375 C-88.56839684 87.46299866 -88.56839684 87.46299866 -89.71815491 88.6048584 C-93.80825987 92.69453442 -97.73090394 96.87034443 -101.49879456 101.25944519 C-103.72487223 103.84044449 -106.05189448 106.31847531 -108.375 108.8125 C-113.49005227 114.3566527 -118.28627538 120.10979204 -123 126 C-123.92240375 127.13083957 -124.84562196 128.26101515 -125.76953125 129.390625 C-131.44666985 136.36477721 -136.90400198 143.47238396 -142.1875 150.75 C-143.03489746 151.91221069 -143.03489746 151.91221069 -143.89941406 153.09790039 C-144.42116211 153.82356201 -144.94291016 154.54922363 -145.48046875 155.296875 C-146.17499146 156.26125488 -146.17499146 156.26125488 -146.88354492 157.24511719 C-148.17328455 159.11581683 -148.17328455 159.11581683 -149 162 C-148.26136719 161.31035156 -147.52273438 160.62070313 -146.76171875 159.91015625 C-140.04089957 153.67003438 -133.15106274 147.74671967 -126 142 C-124.78287315 141.00380154 -123.56678973 140.00632736 -122.3515625 139.0078125 C-90.72607228 113.06213095 -57.4503364 89.69732282 -21 71 C-20.98598145 69.7939209 -20.98598145 69.7939209 -20.97167969 68.56347656 C-20.69365583 49.45615062 -20.10935026 30.99681238 -13 13 C-33.87355201 13.24874995 -52.21323799 14.92690408 -72 22 C-73.49970421 22.45930027 -74.99968894 22.91768593 -76.5 23.375 C-81.39565757 24.97998664 -85.85775373 27.38183047 -90.3984375 29.79296875 C-93 31 -93 31 -96 31 C-96.33 31.99 -96.66 32.98 -97 34 C-97 33.34 -97 32.68 -97 32 C-97.66 31.67 -98.32 31.34 -99 31 C-95.39671657 29.26898863 -91.79220841 27.54054175 -88.1875 25.8125 C-86.68026367 25.08836914 -86.68026367 25.08836914 -85.14257812 24.34960938 C-67.14970731 15.72923075 -49.25891253 8.26755907 -29.8125 3.5625 C-28.79849121 3.3157251 -27.78448242 3.0689502 -26.73974609 2.81469727 C-17.88036861 0.76916123 -9.09012438 -0.20200276 0 0 Z " fill="#67C499" transform="translate(469,50)"/>
<path d="M0 0 C3.3 0 6.6 0 10 0 C10 0.33 10 0.66 10 1 C10.99402832 1.1451001 11.98805664 1.2902002 13.01220703 1.43969727 C77.15881782 10.8734652 77.15881782 10.8734652 103.71484375 22.5625 C106.29848581 23.69303541 108.88613556 24.76604305 111.50390625 25.8125 C123.99555588 30.84689595 137.08807807 36.59714959 147 46 C147 46.66 147 47.32 147 48 C142.61538462 51 142.61538462 51 140 51 C140 51.66 140 52.32 140 53 C138.49609375 54.48046875 138.49609375 54.48046875 136.4375 56.1875 C129.59363319 61.88405191 123.94252581 67.9969678 118.875 75.3125 C118.35365479 76.05798096 117.83230957 76.80346191 117.29516602 77.5715332 C113.66786848 82.83726017 110.5938776 88.15064848 108 94 C107.00392948 96.00195992 106.00428939 98.00215045 105 100 C90.42263898 99.57226053 76.12302082 96.98780777 61.75 94.6875 C56.76597337 93.89753113 51.78141616 93.11093362 46.796875 92.32421875 C45.56849915 92.12979187 44.34012329 91.93536499 43.07452393 91.73504639 C-0.81641552 84.80725412 -44.24186137 79.4087944 -88.6875 78.4375 C-90.57617777 78.39413626 -92.46484971 78.35051757 -94.35351562 78.30664062 C-98.90228223 78.20150468 -103.45111246 78.09976053 -108 78 C-108 77.67 -108 77.34 -108 77 C-65.66995897 72.02423027 -23.26116881 68.60122018 19.375 68.6875 C20.63137268 68.68995728 21.88774536 68.69241455 23.18218994 68.69494629 C41.04701334 68.75785991 58.92324297 68.99332425 76.6875 71.0625 C77.50798828 71.15337891 78.32847656 71.24425781 79.17382812 71.33789062 C81.11643138 71.55373543 83.05831524 71.77604308 85 72 C84.98259766 73.03060547 84.98259766 73.03060547 84.96484375 74.08203125 C84.95582031 74.98308594 84.94679688 75.88414062 84.9375 76.8125 C84.92009766 78.15248047 84.92009766 78.15248047 84.90234375 79.51953125 C84.88990033 82.13413791 84.88990033 82.13413791 86 85 C86.66 85.33 87.32 85.66 88 86 C88.2578125 85.29875 88.515625 84.5975 88.78125 83.875 C94.83189464 69.60168443 105.80012176 56.4694514 117 46 C80.97234237 24.32285474 40.77635621 10.51432818 0 1 C0 0.67 0 0.34 0 0 Z " fill="#E03324" transform="translate(468,346)"/>
<path d="M0 0 C2.04597189 3.06895784 2.8864968 5.56233371 4 9.0625 C8.68374744 22.78112574 16.88094127 34.94250065 24.65380859 47.07348633 C33.62402861 61.15430579 39.73703352 72.91635961 38 90 C36.60902654 93.68017702 34.72020816 96.18659413 32 99 C31.40832031 99.63292969 30.81664062 100.26585937 30.20703125 100.91796875 C20.37011485 110.43036832 7.42073794 113.4545052 -5.85180664 113.43383789 C-19.57077571 113.09780053 -33.0659922 108.14322355 -42.71875 98.19921875 C-47.48010467 92.8259492 -52.48118077 86.8084447 -55 80 C-54.505 79.01 -54.505 79.01 -54 78 C-53.61070313 78.56847656 -53.22140625 79.13695312 -52.8203125 79.72265625 C-45.30391399 90.0966717 -34.98429496 96.50392626 -22.53125 99.6171875 C-10.61987133 101.41859971 0.10457065 99.76966159 9.9609375 92.734375 C15.31105152 88.1837033 18.68184867 82.56809544 21 76 C21 75.01 21 74.02 21 73 C20.34 73.680625 19.68 74.36125 19 75.0625 C16.69843197 77.35095368 14.34218156 79.57005503 11.9375 81.75 C11.28652344 82.34296875 10.63554687 82.9359375 9.96484375 83.546875 C7.93561555 85.04761633 6.46618688 85.5825608 4 86 C4.39832031 85.48050781 4.79664063 84.96101563 5.20703125 84.42578125 C12.72391663 74.53129223 15.25876586 67.00683847 14.37304688 54.53710938 C13.28842081 47.16051637 9.92170203 40.23475198 7.01757812 33.42382812 C5.58298378 30.00668496 4.31370089 26.55114249 3.0625 23.0625 C2.49208984 21.50208984 2.49208984 21.50208984 1.91015625 19.91015625 C0.35910619 14.95079018 -0.1256744 10.30530111 -0.0625 5.125 C-0.05347656 4.15820312 -0.04445312 3.19140625 -0.03515625 2.1953125 C-0.02355469 1.47085937 -0.01195312 0.74640625 0 0 Z " fill="#4AA0C8" transform="translate(143,418)"/>
<path d="M0 0 C15.86043826 0.17171734 30.60335364 2.21707376 46 6 C46.8038916 6.19609863 47.6077832 6.39219727 48.43603516 6.59423828 C89.83742769 16.91120537 127.65072256 35.99497888 162 61 C161.01 61.495 161.01 61.495 160 62 C157.67961677 60.82119568 155.4812086 59.58193925 153.25 58.25 C119.98114051 39.04562299 81.98247839 21.6278985 44.06079102 14.37768555 C28.84712408 11.46238166 14.51471581 6.29897426 0 1 C0 0.67 0 0.34 0 0 Z " fill="#131313" transform="translate(375,454)"/>
<path d="M0 0 C2.030958 1.975832 3.89058002 3.93711123 5.75 6.0625 C6.82051789 7.25228975 7.8921328 8.44109337 8.96484375 9.62890625 C9.4841748 10.20785645 10.00350586 10.78680664 10.53857422 11.38330078 C15.6016866 16.98435828 20.71433194 21.80955463 27 26 C23.35233075 29.35009624 19.44075766 30.12254884 14.75 31.1875 C14.00492188 31.36474609 13.25984375 31.54199219 12.4921875 31.72460938 C10.66347729 32.15834193 8.83199221 32.58034597 7 33 C6.40574219 32.12859375 5.81148437 31.2571875 5.19921875 30.359375 C-0.62204831 21.9514055 -6.90753632 14.36213911 -14 7 C-12.62697042 3.63820077 -11.38114791 2.2787119 -8.125 0.6875 C-7.44695312 0.34074219 -6.76890625 -0.00601562 -6.0703125 -0.36328125 C-3.55461228 -1.13697773 -2.46604395 -0.85288198 0 0 Z " fill="#F4F4F4" transform="translate(236,412)"/>
<path d="M0 0 C0.99 0.495 0.99 0.495 2 1 C-3.07196018 5.65388103 -8.18844153 10.19619894 -13.5625 14.5 C-17.87197787 17.98400042 -21.8087772 21.65968276 -25.63671875 25.6640625 C-27.59644847 27.60111766 -29.5866743 29.38685103 -31.67504883 31.17944336 C-35.80718587 34.78283683 -39.70262936 38.57368858 -43.5625 42.46484375 C-44.57763672 43.48210289 -44.57763672 43.48210289 -45.61328125 44.51991272 C-47.74457675 46.65674305 -49.87234218 48.79704823 -52 50.9375 C-53.45679779 52.39932123 -54.91382701 53.86091187 -56.37109375 55.32226562 C-59.91673973 58.878854 -63.45922739 62.43856016 -67 66 C-68.15941038 62.52176885 -67.70820884 60.54104422 -67 57 C-67.99 56.67 -68.98 56.34 -70 56 C-61.25328278 47.6591859 -52.48912641 39.49904574 -43 32 C-41.8737454 31.08357095 -40.7488248 30.16550087 -39.625 29.24609375 C-26.88342738 18.86572165 -13.51709843 9.33970369 0 0 Z " fill="#0C100E" transform="translate(417,98)"/>
<path d="M0 0 C0.37170491 4.64631139 0.42492292 8.0821665 -1.5625 12.375 C-5.4679281 16.58084565 -9.59446775 18.12386583 -15.25 18.4375 C-23.75456749 18.13324801 -31.61428052 13.90188953 -39 10 C-36.05314742 8.03543161 -34.32352754 7.46376229 -30.9375 6.6875 C-27.07030523 5.77146119 -23.23560163 4.79781514 -19.41796875 3.6953125 C-18.62592041 3.46755127 -17.83387207 3.23979004 -17.01782227 3.00512695 C-15.45014944 2.55134797 -13.88414437 2.09175782 -12.32006836 1.62573242 C-8.08996859 0.41028282 -4.45173575 -0.26145115 0 0 Z " fill="#EDEDED" transform="translate(235,454)"/>
<path d="M0 0 C0.92213375 2.56148263 0.97911787 4.13255612 0.55078125 6.8515625 C-2.27810157 25.42379316 -1.91304164 46.87335187 9.3125 62.625 C10.51502781 64.10537619 11.73387014 65.5736403 13 67 C12.38125 67.12375 11.7625 67.2475 11.125 67.375 C8.80879168 67.87197356 8.80879168 67.87197356 7 70 C6.505 70.99 6.505 70.99 6 72 C1.14859204 64.95455641 -2.58929302 58.22547759 -5 50 C-5.22558594 49.25878906 -5.45117188 48.51757812 -5.68359375 47.75390625 C-9.66394632 31.91484809 -7.5841252 14.36420274 0 0 Z " fill="#101112" transform="translate(85,445)"/>
<path d="M0 0 C-0.8125 1.9375 -0.8125 1.9375 -2 4 C-5 5 -5 5 -7.97265625 5.30859375 C-13.38211653 6.05079254 -18.35624484 8.13882206 -23.4375 10.0625 C-25.15622314 10.70602417 -25.15622314 10.70602417 -26.90966797 11.36254883 C-50.11106416 20.12714999 -73.08334595 29.51985063 -96 39 C-97 36 -97 36 -96.2980957 33.92431641 C-94.75845213 31.64192584 -93.79163606 31.14813368 -91.23046875 30.2109375 C-90.43930664 29.91445312 -89.64814453 29.61796875 -88.83300781 29.3125 C-87.52348145 28.8484375 -87.52348145 28.8484375 -86.1875 28.375 C-85.26678711 28.03726563 -84.34607422 27.69953125 -83.39746094 27.3515625 C-80.27171338 26.21455251 -77.13735416 25.10456455 -74 24 C-72.86836426 23.59942383 -71.73672852 23.19884766 -70.57080078 22.78613281 C-50.53545481 15.71939153 -30.368693 9.04309198 -10 3 C-10 2.34 -10 1.68 -10 1 C-6.59437148 0.22157062 -3.49234244 -0.09978121 0 0 Z " fill="#E09B4F" transform="translate(624,219)"/>
<path d="M0 0 C2.06254013 3.09381019 2.92983363 5.65958932 4.0625 9.1875 C6.37644825 15.89165824 9.47700875 21.78233038 13.14086914 27.84448242 C14.14705002 29.53242631 15.08075604 31.26317961 16 33 C15 35 15 35 13 37 C12.97831363 39.90675183 12.97831363 39.90675183 13.375 43.125 C13.48585937 44.22070312 13.59671875 45.31640625 13.7109375 46.4453125 C13.80632812 47.28835938 13.90171875 48.13140625 14 49 C5.00066245 35.50099368 -0.86008631 16.18236474 0 0 Z " fill="#4CA0C3" transform="translate(143,418)"/>
<path d="M0 0 C3.3 0 6.6 0 10 0 C10 0.33 10 0.66 10 1 C11.69527832 1.25692627 11.69527832 1.25692627 13.42480469 1.51904297 C17.62280487 2.15709242 21.81939746 2.80401664 26.015625 3.45361328 C27.83100894 3.73337691 29.64676432 4.01074132 31.46289062 4.28564453 C34.07523642 4.6814978 36.68611917 5.0859967 39.296875 5.4921875 C40.10743347 5.6131076 40.91799194 5.73402771 41.75311279 5.85861206 C45.49072913 6.44825403 48.72888146 6.96514927 52 9 C50.02 9.99 50.02 9.99 48 11 C50.11785113 12.11785113 50.11785113 12.11785113 53 13 C53.495 14.485 53.495 14.485 54 16 C48.8997548 14.48294746 43.80694945 12.94651554 38.73046875 11.3515625 C25.92646781 7.35052735 13.08966573 3.93132865 0 1 C0 0.67 0 0.34 0 0 Z " fill="#B73B35" transform="translate(468,346)"/>
<path d="M0 0 C-2.59310056 1.72873371 -4.13805116 2.46696308 -7.03515625 3.296875 C-8.23700562 3.64758057 -8.23700562 3.64758057 -9.46313477 4.00537109 C-10.32092529 4.25109863 -11.17871582 4.49682617 -12.0625 4.75 C-19.89451027 7.0359765 -27.6439865 9.48959558 -35.34985352 12.17089844 C-38.35880028 13.20214184 -40.79461433 14 -44 14 C-44.33 12.68 -44.66 11.36 -45 10 C-46.32 9.67 -47.64 9.34 -49 9 C-44.6446935 8.03711435 -40.28879735 7.07695295 -35.93237305 6.11914062 C-34.45532649 5.79401368 -32.97843385 5.46818653 -31.50170898 5.14160156 C-6.626196 -0.35817276 -6.626196 -0.35817276 0 0 Z " fill="#170E0D" transform="translate(617,221)"/>
<path d="M0 0 C-0.33 1.32 -0.66 2.64 -1 4 C1.97 4.33 4.94 4.66 8 5 C8 5.33 8 5.66 8 6 C2.71689152 6.57440867 -2.56671502 7.14391033 -7.85083008 7.70898438 C-9.64622067 7.90166517 -11.44147106 8.09565722 -13.23657227 8.29101562 C-15.82532063 8.57251059 -18.41454603 8.84919701 -21.00390625 9.125 C-21.79898087 9.21249512 -22.59405548 9.29999023 -23.41322327 9.39013672 C-27.97240908 9.87038477 -32.41552356 10.0853422 -37 10 C-34.18546503 8.12364335 -32.38006105 7.4175382 -29.17578125 6.5625 C-28.22896484 6.30726563 -27.28214844 6.05203125 -26.30664062 5.7890625 C-25.31857422 5.52867187 -24.33050781 5.26828125 -23.3125 5 C-22.34376953 4.73960937 -21.37503906 4.47921875 -20.37695312 4.2109375 C-17.58716554 3.46397612 -14.79407852 2.73071953 -12 2 C-11.22446777 1.79117187 -10.44893555 1.58234375 -9.64990234 1.3671875 C-6.27536646 0.4787813 -3.52085927 0 0 0 Z " fill="#EDE6E4" transform="translate(390,414)"/>
<path d="M0 0 C0 2 0 2 -2.5 4.625 C-3.325 5.40875 -4.15 6.1925 -5 7 C-3.35 7 -1.7 7 0 7 C0.33 6.34 0.66 5.68 1 5 C1.56847656 5.03480469 2.13695312 5.06960938 2.72265625 5.10546875 C6.83134597 5.24951296 9.50232131 5.22536393 13.3125 3.5 C18.53900854 1.37396263 23.42888207 1.75300462 29 2 C29 2.33 29 2.66 29 3 C23.50547562 4.24811046 18.01025679 5.49310227 12.5144043 6.73535156 C10.64930681 7.15737034 8.78439359 7.58020439 6.91967773 8.00390625 C-12.96010558 12.51986024 -12.96010558 12.51986024 -22 14 C-18.17753144 9.83742785 -14.18068431 7.02530676 -9.3125 4.1875 C-8.63638672 3.78080078 -7.96027344 3.37410156 -7.26367188 2.95507812 C-2.27232143 0 -2.27232143 0 0 0 Z " fill="#F7F4E3" transform="translate(477,283)"/>
<path d="M0 0 C1.26830658 -0.00095673 2.53661316 -0.00191345 3.84335327 -0.00289917 C6.51067621 -0.00357528 9.17790549 -0.00227722 11.84521484 0.00244141 C14.5366436 0.00697953 17.22800493 0.00702591 19.91943359 0.00244141 C35.06929391 -0.02165601 50.155871 0.08354583 65.2734375 1.1328125 C65.2734375 1.4628125 65.2734375 1.7928125 65.2734375 2.1328125 C45.37028707 3.09865591 25.59588669 3.1399108 5.68286133 2.73791504 C2.00742419 2.66540359 -1.66816676 2.60170658 -5.34375 2.53710938 C-12.47152021 2.41062089 -19.59908544 2.27494085 -26.7265625 2.1328125 C-26.7265625 1.8028125 -26.7265625 1.4728125 -26.7265625 1.1328125 C-17.79983846 0.3234528 -8.96117771 -0.01529822 0 0 Z " fill="#D95E57" transform="translate(468.7265625,414.8671875)"/>
<path d="M0 0 C-0.8125 1.9375 -0.8125 1.9375 -2 4 C-5 5 -5 5 -8.29760742 5.4284668 C-11.87479142 5.98067173 -14.85931371 6.87190565 -18.23828125 8.14453125 C-19.96401367 8.78938477 -19.96401367 8.78938477 -21.72460938 9.44726562 C-22.90861328 9.89779297 -24.09261719 10.34832031 -25.3125 10.8125 C-26.48490234 11.25142578 -27.65730469 11.69035156 -28.86523438 12.14257812 C-34.93088355 14.42185333 -40.95700534 16.76166263 -46.92138672 19.29516602 C-49.95733521 20.32462142 -52.82598966 20.12447099 -56 20 C-57.66933058 20.6599679 -59.3364521 21.32558869 -61 22 C-63.14453125 21.55859375 -63.14453125 21.55859375 -65 21 C-59.41891788 19.07474597 -53.83617837 17.15439955 -48.25195312 15.23828125 C-46.35860387 14.58788429 -44.46568756 13.93622541 -42.57324219 13.28320312 C-31.78769208 9.56247367 -21.02290104 5.95776132 -10 3 C-10 2.34 -10 1.68 -10 1 C-6.59437148 0.22157062 -3.49234244 -0.09978121 0 0 Z " fill="#D79956" transform="translate(624,219)"/>
<path d="M0 0 C0 0.66 0 1.32 0 2 C-1.66666667 3 -3.33333333 4 -5 5 C-6.7041054 6.62836738 -8.38025441 8.28769752 -10 10 C-6.7 10 -3.4 10 0 10 C-5.21261408 12.60630704 -10.61518693 14.26721643 -16.15478516 16.05102539 C-18.12791936 16.68844309 -20.09710794 17.33717089 -22.06640625 17.98632812 C-23.30519531 18.38658203 -24.54398437 18.78683594 -25.8203125 19.19921875 C-26.95742676 19.56877686 -28.09454102 19.93833496 -29.26611328 20.3190918 C-32 21 -32 21 -34 20 C-25.58976725 14.49268724 -17.16410379 9.01769848 -8.5625 3.8125 C-7.93077881 3.42650635 -7.29905762 3.0405127 -6.64819336 2.64282227 C-2.24024561 0 -2.24024561 0 0 0 Z " fill="#D4934C" transform="translate(401,312)"/>
<path d="M0 0 C1.09865723 2.75651126 1.0308518 3.90847729 0.06640625 6.76953125 C-3.33484838 13.65155035 -6.74623526 18.49221019 -13 23 C-13.66 22.01 -14.32 21.02 -15 20 C-13.68 19.67 -12.36 19.34 -11 19 C-11 18.01 -11 17.02 -11 16 C-10.01 15.34 -9.02 14.68 -8 14 C-8.99 13.34 -9.98 12.68 -11 12 C-11 12.66 -11 13.32 -11 14 C-13.31 14.33 -15.62 14.66 -18 15 C-18 12.36 -18 9.72 -18 7 C-15.37886292 7 -13.49064888 7.31292445 -11 8 C-12.32 9.65 -13.64 11.3 -15 13 C-9.58783154 9.08116605 -9.58783154 9.08116605 -4.625 4.625 C-4.08875 4.08875 -3.5525 3.5525 -3 3 C-2.34 3 -1.68 3 -1 3 C-0.67 2.01 -0.34 1.02 0 0 Z " fill="#E8F5F5" transform="translate(164,490)"/>
<path d="M0 0 C0.66 0.33 1.32 0.66 2 1 C-3.07196018 5.65388103 -8.18844153 10.19619894 -13.5625 14.5 C-18.73034468 18.6740284 -23.40897265 23.204927 -28 28 C-28.99 27.01 -29.98 26.02 -31 25 C-32.98 25.99 -32.98 25.99 -35 27 C-30.97317736 22.75252954 -26.59869901 19.21776467 -21.9375 15.6875 C-21.19177734 15.1193457 -20.44605469 14.55119141 -19.67773438 13.96582031 C-14.28893158 9.89299554 -8.79790076 6.0595119 -3.125 2.390625 C-1.10206777 1.17022624 -1.10206777 1.17022624 0 0 Z " fill="#1A1F1C" transform="translate(417,98)"/>
<path d="M0 0 C4.71499313 1.36337151 8.39899328 3.31709841 12.5 6 C13.09441895 6.38792725 13.68883789 6.77585449 14.30126953 7.17553711 C21.00361895 11.58960078 27.51288799 16.27761907 34 21 C33.01 21.495 33.01 21.495 32 22 C29.614243 20.8025039 27.35469228 19.54670183 25.0625 18.1875 C18.61528019 14.45533268 12.10185298 10.88907824 5.5 7.4375 C4.65703369 6.99623779 3.81406738 6.55497559 2.94555664 6.1003418 C0.96469341 5.06497936 -1.01708037 4.03141707 -3 3 C-2.01 2.01 -1.02 1.02 0 0 Z " fill="#131313" transform="translate(503,494)"/>
<path d="M0 0 C0.66 0.33 1.32 0.66 2 1 C-9.55 12.55 -21.1 24.1 -33 36 C-33.99 35.34 -34.98 34.68 -36 34 C-33.50434749 31.47483195 -31.00267549 28.95570627 -28.5 26.4375 C-27.80390625 25.73302734 -27.1078125 25.02855469 -26.390625 24.30273438 C-22.35386534 20.24728601 -18.22825335 16.37038802 -13.89257812 12.63647461 C-11.04082016 10.1706163 -8.27119947 7.61808318 -5.5 5.0625 C-4.96375 4.56943359 -4.4275 4.07636719 -3.875 3.56835938 C-2.58254526 2.37976261 -1.29115201 1.19001177 0 0 Z " fill="#69B494" transform="translate(407,108)"/>
<path d="M0 0 C4.07994576 1.87677505 7.09314914 4.37379827 9.125 8.4375 C7.9803125 8.5921875 7.9803125 8.5921875 6.8125 8.75 C3.89863954 9.49540616 3.09549603 10.28208939 1.125 12.4375 C0.13716806 11.36206217 -0.83993943 10.27676783 -1.8125 9.1875 C-2.35777344 8.58421875 -2.90304688 7.9809375 -3.46484375 7.359375 C-4.93712799 5.35282695 -5.45029189 3.86747551 -5.875 1.4375 C-2.875 -0.5625 -2.875 -0.5625 0 0 Z " fill="#0A0C0E" transform="translate(96.875,512.5625)"/>
<path d="M0 0 C1.97429741 0.03753891 1.97429741 0.03753891 3.98847961 0.07583618 C7.44918187 0.14176023 10.90945823 0.22080031 14.36981201 0.30279541 C17.91629983 0.38443544 21.46303375 0.45336417 25.00976562 0.5234375 C31.94039269 0.66220356 38.87065234 0.81485997 45.80078125 0.9765625 C45.80078125 1.3065625 45.80078125 1.6365625 45.80078125 1.9765625 C10.65578125 2.4715625 10.65578125 2.4715625 -25.19921875 2.9765625 C-25.19921875 2.6465625 -25.19921875 2.3165625 -25.19921875 1.9765625 C-16.70855788 0.02504408 -8.68386765 -0.22266417 0 0 Z " fill="#DFAB72" transform="translate(513.19921875,178.0234375)"/>
<path d="M0 0 C0.66 0.33 1.32 0.66 2 1 C1.13375 1.79664062 1.13375 1.79664062 0.25 2.609375 C-0.4925 3.31578125 -1.235 4.0221875 -2 4.75 C-2.7425 5.44609375 -3.485 6.1421875 -4.25 6.859375 C-6.42195334 9.05531957 -6.42195334 9.05531957 -6 13 C-7.40527344 14.34033203 -7.40527344 14.34033203 -9.359375 15.5078125 C-10.06320312 15.93707031 -10.76703125 16.36632812 -11.4921875 16.80859375 C-12.23726563 17.24300781 -12.98234375 17.67742187 -13.75 18.125 C-14.47960937 18.56714844 -15.20921875 19.00929688 -15.9609375 19.46484375 C-19.25143833 21.44512698 -22.54942477 23.31115537 -26 25 C-22.3909093 20.57886389 -18.71092533 16.73599099 -14.3671875 13.04296875 C-11.35482771 10.44319289 -8.42779788 7.75672908 -5.5 5.0625 C-4.95907715 4.56524414 -4.4181543 4.06798828 -3.86083984 3.55566406 C-2.5731891 2.37120773 -1.28649101 1.18571588 0 0 Z " fill="#262626" transform="translate(337,92)"/>
<path d="M0 0 C0.33 0 0.66 0 1 0 C1.22185844 2.26955186 1.42705515 4.54073755 1.625 6.8125 C1.74101562 8.07707031 1.85703125 9.34164063 1.9765625 10.64453125 C2 14 2 14 0 17 C1.65 17 3.3 17 5 17 C5 19 5 19 3.4609375 20.5859375 C-0.54692708 24.02339439 -4.52063754 27.20039846 -9 30 C-9.66 29.67 -10.32 29.34 -11 29 C-10.52949219 28.5153125 -10.05898437 28.030625 -9.57421875 27.53125 C-1.53792644 18.8793411 -0.51571649 11.66586265 0 0 Z " fill="#5DACC5" transform="translate(158,474)"/>
<path d="M0 0 C2.14953175 3.22429763 3.18562541 6.15047432 4.4375 9.8125 C6.01112503 14.41498323 7.82447593 18.6552945 10 23 C10 23.66 10 24.32 10 25 C8.68 24.67 7.36 24.34 6 24 C5.67 22.35 5.34 20.7 5 19 C4.01 19.33 3.02 19.66 2 20 C0.2120463 13.1834265 -0.23668569 7.03482474 0 0 Z " fill="#4793B3" transform="translate(143,418)"/>
<path d="M0 0 C0.89203125 0.01804687 1.7840625 0.03609375 2.703125 0.0546875 C3.71632813 0.08949219 3.71632813 0.08949219 4.75 0.125 C1.70974596 2.15183603 0.07135341 2.56274871 -3.4375 3.25 C-9.79685371 4.73488577 -15.1865246 7.37238529 -20.9050293 10.43212891 C-25.97532804 13.125 -25.97532804 13.125 -29.25 13.125 C-29.58 14.115 -29.91 15.105 -30.25 16.125 C-30.25 15.465 -30.25 14.805 -30.25 14.125 C-30.91 13.795 -31.57 13.465 -32.25 13.125 C-31.57420898 12.80225098 -30.89841797 12.47950195 -30.20214844 12.14697266 C-27.13458735 10.68168798 -24.06729101 9.21584994 -21 7.75 C-19.93652344 7.24210937 -18.87304688 6.73421875 -17.77734375 6.2109375 C-16.75253906 5.72109375 -15.72773438 5.23125 -14.671875 4.7265625 C-13.72924805 4.27619629 -12.78662109 3.82583008 -11.81542969 3.36181641 C-10.22104049 2.59314724 -8.63732802 1.80135534 -7.07226562 0.97460938 C-4.63663839 -0.16097245 -2.67017345 -0.07026772 0 0 Z " fill="#7DB79F" transform="translate(402.25,67.875)"/>
<path d="M0 0 C0 2.72198696 -0.07395706 4.47531451 -1 7 C-2.7421875 8.7109375 -2.7421875 8.7109375 -4.875 10.375 C-8.33993616 13.25002768 -10.33486309 15.73308667 -12 20 C-12.99 20 -13.98 20 -15 20 C-15 20.99 -15 21.98 -15 23 C-16.98 23.99 -16.98 23.99 -19 25 C-17.52316137 20.61028076 -15.1449071 17.22858614 -12.3125 13.625 C-11.64855225 12.76998901 -11.64855225 12.76998901 -10.97119141 11.89770508 C-7.59272635 7.60833742 -3.99284235 3.73243959 0 0 Z " fill="#280907" transform="translate(601,404)"/>
<path d="M0 0 C0.33 0.66 0.66 1.32 1 2 C1.66 2 2.32 2 3 2 C1.40337182 6.69065907 -1.15891819 10.45040746 -3.9375 14.5 C-6.73333019 18.61031804 -9.49556881 22.70196627 -12 27 C-12.33 26.34 -12.66 25.68 -13 25 C-12.02783203 22.58569336 -12.02783203 22.58569336 -10.5078125 19.58984375 C-9.96769531 18.51798828 -9.42757812 17.44613281 -8.87109375 16.34179688 C-8.29488281 15.21837891 -7.71867188 14.09496094 -7.125 12.9375 C-6.55652344 11.81021484 -5.98804688 10.68292969 -5.40234375 9.52148438 C-1.16752518 1.16752518 -1.16752518 1.16752518 0 0 Z " fill="#212121" transform="translate(177,385)"/>
<path d="M0 0 C0 3 0 3 -2.0625 5.1875 C-2.51753906 5.61289063 -2.97257812 6.03828125 -3.44140625 6.4765625 C-5.25118627 8.24552041 -6.86180335 10.13394464 -8.5 12.0625 C-11.12287557 15.0941354 -13.80596039 17.56244346 -17 20 C-18.68528688 21.64783606 -20.35697047 23.31002677 -22 25 C-22.66 24.67 -23.32 24.34 -24 24 C-16.44738134 15.4635733 -8.48510355 7.60826455 0 0 Z " fill="#242424" transform="translate(346,155)"/>
<path d="M0 0 C0.66 0 1.32 0 2 0 C7.43515099 9.92505833 6.88817954 20.32405064 4 31 C3.34 31 2.68 31 2 31 C2 31.99 2 32.98 2 34 C1.34 34 0.68 34 0 34 C1.875 28.125 1.875 28.125 3 27 C3.59691311 17.56418125 3.20185479 8.99568726 0 0 Z " fill="#112330" transform="translate(177,481)"/>
<path d="M0 0 C1.32 0.33 2.64 0.66 4 1 C3.34 2.65 2.68 4.3 2 6 C-7.45406594 5.5031058 -16.66048365 4.62220942 -26 3 C-26 2.67 -26 2.34 -26 2 C-22.75001888 1.97090237 -19.50007143 1.95316839 -16.25 1.9375 C-15.32960938 1.92912109 -14.40921875 1.92074219 -13.4609375 1.91210938 C-12.57148437 1.90888672 -11.68203125 1.90566406 -10.765625 1.90234375 C-9.94868164 1.89710693 -9.13173828 1.89187012 -8.29003906 1.88647461 C-2.84352215 2.15647785 -2.84352215 2.15647785 -1 4 C-0.67 2.68 -0.34 1.36 0 0 Z " fill="#BF2C21" transform="translate(571,440)"/>
<path d="M0 0 C0.66 0.33 1.32 0.66 2 1 C1.34 1.66 0.68 2.32 0 3 C0.66 3.66 1.32 4.32 2 5 C-0.55939439 6.63007257 -3.12227323 8.25415176 -5.6875 9.875 C-6.40873047 10.33519531 -7.12996094 10.79539062 -7.87304688 11.26953125 C-11.49198487 13.54995793 -14.92841547 15.60265146 -19 17 C-15.09449051 12.97501029 -10.96429692 9.31242674 -6.6875 5.6875 C-5.71973633 4.86282227 -5.71973633 4.86282227 -4.73242188 4.02148438 C-3.15656558 2.67908827 -1.57850879 1.33927606 0 0 Z " fill="#222222" transform="translate(206,421)"/>
<path d="M0 0 C-2.54204137 1.69469425 -4.07600823 2.45762849 -6.90625 3.2890625 C-7.65003906 3.50820312 -8.39382813 3.72734375 -9.16015625 3.953125 C-9.93230469 4.17484375 -10.70445312 4.3965625 -11.5 4.625 C-12.27214844 4.85445312 -13.04429687 5.08390625 -13.83984375 5.3203125 C-17.04518087 6.25358223 -19.63701221 7 -23 7 C-23 6.34 -23 5.68 -23 5 C-24.32 4.67 -25.64 4.34 -27 4 C-23.62678224 3.32409812 -20.25117758 2.66094482 -16.875 2 C-15.92367187 1.80921875 -14.97234375 1.6184375 -13.9921875 1.421875 C-9.26361884 0.50243109 -4.84437265 -0.2609763 0 0 Z " fill="#1F1716" transform="translate(617,221)"/>
<path d="M0 0 C0.66 0.33 1.32 0.66 2 1 C-2.66736167 5.30391957 -7.34644863 9.60295235 -12.3125 13.5625 C-13.20388672 14.27599609 -13.20388672 14.27599609 -14.11328125 15.00390625 C-16.5143299 16.27154063 -18.32465511 16.17958425 -21 16 C-17.13979103 11.84055002 -13.01085974 8.81382881 -8.25 5.75 C-3.90837794 3.1407293 -3.90837794 3.1407293 0 0 Z " fill="#242624" transform="translate(417,98)"/>
<path d="M0 0 C0.33 0 0.66 0 1 0 C0.67 2.97 0.34 5.94 0 9 C-0.66 9 -1.32 9 -2 9 C-2.77403558 13.06368679 -3.0984702 16.86425173 -3 21 C-4.65 21.66 -6.3 22.32 -8 23 C-6.05797655 14.97928527 -3.33160505 7.54549287 0 0 Z " fill="#2F1D11" transform="translate(674,231)"/>
<path d="M0 0 C3.81433013 1.52573205 5.96552304 2.52746322 9 5 C7.8572081 6.16964602 6.71068285 7.33564556 5.5625 8.5 C4.92441406 9.1496875 4.28632812 9.799375 3.62890625 10.46875 C2 12 2 12 1 12 C0.67 8.04 0.34 4.08 0 0 Z " fill="#F7F0ED" transform="translate(577,387)"/>
<path d="M0 0 C-0.33 1.32 -0.66 2.64 -1 4 C-1.99 3.67 -2.98 3.34 -4 3 C-4.99 3.495 -4.99 3.495 -6 4 C-6.99 3.67 -7.98 3.34 -9 3 C-9 4.32 -9 5.64 -9 7 C-15.435 7.495 -15.435 7.495 -22 8 C-18.32191116 5.54794077 -14.50941355 3.9987115 -10.4375 2.3125 C-9.65697266 1.97927734 -8.87644531 1.64605469 -8.07226562 1.30273438 C-7.32525391 0.99271484 -6.57824219 0.68269531 -5.80859375 0.36328125 C-5.12595459 0.07751221 -4.44331543 -0.20825684 -3.73999023 -0.50268555 C-2 -1 -2 -1 0 0 Z " fill="#F7EFDE" transform="translate(562,245)"/>
<path d="M0 0 C1.14664198 3.18511662 0.78124033 5.61396801 0.27368164 8.90258789 C-0.2473513 12.89562443 -0.376016 16.91739404 -0.5625 20.9375 C-0.60568359 21.81212891 -0.64886719 22.68675781 -0.69335938 23.58789062 C-0.79846901 25.72511995 -0.89963985 27.86254238 -1 30 C-1.33 30 -1.66 30 -2 30 C-2.33 24.39 -2.66 18.78 -3 13 C-3.99 13.495 -3.99 13.495 -5 14 C-4.54636829 12.41531323 -4.08688548 10.83230076 -3.625 9.25 C-3.36976562 8.36828125 -3.11453125 7.4865625 -2.8515625 6.578125 C-2.0790066 4.23919428 -1.16374324 2.16557438 0 0 Z " fill="#424242" transform="translate(85,445)"/>
<path d="M0 0 C3.35386761 -0.1171893 6.70720149 -0.18757584 10.0625 -0.25 C11.00544922 -0.28351563 11.94839844 -0.31703125 12.91992188 -0.3515625 C19.20604898 -0.43917403 22.83812885 0.36306444 28 4 C24.52681742 5.15652656 21.93862721 4.85092924 18.359375 4.22265625 C17.28945313 4.03896484 16.21953125 3.85527344 15.1171875 3.66601562 C14.00601562 3.46685547 12.89484375 3.26769531 11.75 3.0625 C10.62335938 2.86720703 9.49671875 2.67191406 8.3359375 2.47070312 C5.55593546 1.98773667 2.77747735 1.49724577 0 1 C0 0.67 0 0.34 0 0 Z " fill="#B32920" transform="translate(482,432)"/>
<path d="M0 0 C5.98993047 -0.3152595 9.63560356 0.31780178 15 3 C15 3.99 15 4.98 15 6 C15.99 6 16.98 6 18 6 C18.33 6.99 18.66 7.98 19 9 C14.53202662 7.60121198 10.36177921 5.86369228 6.125 3.875 C4.97257813 3.33617187 3.82015625 2.79734375 2.6328125 2.2421875 C1.76398437 1.83226562 0.89515625 1.42234375 0 1 C0 0.67 0 0.34 0 0 Z " fill="#D63C31" transform="translate(552,374)"/>
<path d="M0 0 C1.58025005 0.21192095 3.16398461 0.39923371 4.75 0.5625 C5.54921875 0.64628906 6.3484375 0.73007812 7.171875 0.81640625 C8.07679688 0.90728516 8.07679688 0.90728516 9 1 C9 1.33 9 1.66 9 2 C5.97961911 2.33794471 2.95880244 2.67048433 -0.0625 3 C-0.91005859 3.09539062 -1.75761719 3.19078125 -2.63085938 3.2890625 C-7.45472589 3.81056158 -12.14836264 4.10532727 -17 4 C-14.23719462 2.15812975 -12.19292174 1.27751723 -9.0625 0.3125 C-7.78052734 -0.09548828 -7.78052734 -0.09548828 -6.47265625 -0.51171875 C-3.81364955 -1.03679906 -2.54745971 -0.79388291 0 0 Z " fill="#D5C1C0" transform="translate(370,420)"/>
<path d="M0 0 C1.25348607 2.95106435 1.01044806 3.97406463 -0.21484375 7.015625 C-1.06755859 8.61664063 -1.06755859 8.61664063 -1.9375 10.25 C-2.50339844 11.32765625 -3.06929687 12.4053125 -3.65234375 13.515625 C-4.09707031 14.33546875 -4.54179687 15.1553125 -5 16 C-5.33 14.68 -5.66 13.36 -6 12 C-5.34 12 -4.68 12 -4 12 C-4 11.01 -4 10.02 -4 9 C-5.32 8.67 -6.64 8.34 -8 8 C-6.37660195 6.29115995 -4.70680947 4.62553283 -3 3 C-2.34 3 -1.68 3 -1 3 C-0.67 2.01 -0.34 1.02 0 0 Z " fill="#D5EFF3" transform="translate(164,490)"/>
<path d="M0 0 C8.77220291 -0.3189892 17.31824479 0.88363194 26 2 C26 2.33 26 2.66 26 3 C17.75 3 9.5 3 1 3 C0.67 2.01 0.34 1.02 0 0 Z " fill="#3A3A3A" transform="translate(531,394)"/>
<path d="M0 0 C7.13393752 0.51537952 14.01812817 1.44005901 21 3 C21 3.33 21 3.66 21 4 C19.82630859 3.98259766 19.82630859 3.98259766 18.62890625 3.96484375 C17.61699219 3.95582031 16.60507812 3.94679687 15.5625 3.9375 C14.04849609 3.92009766 14.04849609 3.92009766 12.50390625 3.90234375 C10.05978933 3.71387324 10.05978933 3.71387324 9 5 C6.66702567 5.04092937 4.33294775 5.04241723 2 5 C2.33 4.01 2.66 3.02 3 2 C2.01 1.34 1.02 0.68 0 0 Z " fill="#F8F6E9" transform="translate(618,187)"/>
<path d="M0 0 C1.65 0 3.3 0 5 0 C4.98839844 0.67546875 4.97679687 1.3509375 4.96484375 2.046875 C4.95582031 2.93890625 4.94679688 3.8309375 4.9375 4.75 C4.92589844 5.63171875 4.91429687 6.5134375 4.90234375 7.421875 C4.99173802 9.7818838 5.33087179 11.74498524 6 14 C4.68 13.67 3.36 13.34 2 13 C1.34 8.71 0.68 4.42 0 0 Z " fill="#D43A2F" transform="translate(548,418)"/>
<path d="M0 0 C1.07817935 3.22730196 0.94858069 4.98126331 -0.3125 8.125 C-0.70888672 9.14980469 -0.70888672 9.14980469 -1.11328125 10.1953125 C-2 12 -2 12 -4 14 C-4.16687448 16.58354218 -4.16687448 16.58354218 -4 19 C-5.32 18.67 -6.64 18.34 -8 18 C-8.33 19.32 -8.66 20.64 -9 22 C-9.99 21.34 -10.98 20.68 -12 20 C-11.32904297 19.34257812 -11.32904297 19.34257812 -10.64453125 18.671875 C-5.30835231 13.07400712 -2.61421198 7.22823589 0 0 Z " fill="#56A8C5" transform="translate(165,491)"/>
<path d="M0 0 C1.99788438 0.34578768 3.99759451 0.68143549 6 1 C6 1.33 6 1.66 6 2 C2.75198175 2.53373082 -0.49861491 3.04971268 -3.75 3.5625 C-4.67039062 3.71396484 -5.59078125 3.86542969 -6.5390625 4.02148438 C-7.87324219 4.2293457 -7.87324219 4.2293457 -9.234375 4.44140625 C-10.45979004 4.63778687 -10.45979004 4.63778687 -11.70996094 4.83813477 C-14.06110207 5.00431883 -15.76426496 4.70259545 -18 4 C-15.75438718 3.13237686 -13.50473745 2.2807897 -11.25 1.4375 C-10.61578125 1.19064453 -9.9815625 0.94378906 -9.328125 0.68945312 C-5.82933422 -0.60437055 -3.52874518 -1.38629275 0 0 Z " fill="#3C2E24" transform="translate(502,176)"/>
<path d="M0 0 C16.70842825 -0.18451025 16.70842825 -0.18451025 25 1 C23.88671875 2.48828125 23.88671875 2.48828125 22 4 C19.08203125 4.29296875 19.08203125 4.29296875 15.8125 4.1875 C14.72582031 4.16042969 13.63914062 4.13335937 12.51953125 4.10546875 C11.27236328 4.05326172 11.27236328 4.05326172 10 4 C10.66 3.34 11.32 2.68 12 2 C8.04 1.67 4.08 1.34 0 1 C0 0.67 0 0.34 0 0 Z " fill="#FBF6E9" transform="translate(561,181)"/>
<path d="M0 0 C2.70108504 0.090916 5.36930311 0.23740766 8.0625 0.4375 C9.20041992 0.51581055 9.20041992 0.51581055 10.36132812 0.59570312 C12.24121722 0.72575835 14.12065685 0.86228038 16 1 C16 1.33 16 1.66 16 2 C8.41 2.99 0.82 3.98 -7 5 C-5.60683123 2.21366246 -3.84019484 2.06507306 -1 1 C-0.67 0.67 -0.34 0.34 0 0 Z " fill="#CC904A" transform="translate(555,288)"/>
<path d="M0 0 C2.98965642 0.59850402 4.99778498 1.48912049 7.453125 3.28515625 C8.071875 3.73310547 8.690625 4.18105469 9.328125 4.64257812 C9.96234375 5.11115234 10.5965625 5.57972656 11.25 6.0625 C11.8996875 6.53494141 12.549375 7.00738281 13.21875 7.49414062 C14.81653662 8.65723529 16.40881803 9.82788601 18 11 C17.01 11.495 17.01 11.495 16 12 C14.30419922 11.28735352 14.30419922 11.28735352 12.3046875 10.12890625 C11.58925781 9.71962891 10.87382813 9.31035156 10.13671875 8.88867188 C9.39035156 8.45103516 8.64398437 8.01339844 7.875 7.5625 C6.74384766 6.9118457 6.74384766 6.9118457 5.58984375 6.24804688 C3.72242866 5.17251034 1.86067303 4.08715861 0 3 C0 2.01 0 1.02 0 0 Z " fill="#202020" transform="translate(519,504)"/>
<path d="M0 0 C1.65322266 0.01740234 1.65322266 0.01740234 3.33984375 0.03515625 C4.44457031 0.04417969 5.54929687 0.05320312 6.6875 0.0625 C7.54214844 0.07410156 8.39679688 0.08570313 9.27734375 0.09765625 C9.27734375 0.42765625 9.27734375 0.75765625 9.27734375 1.09765625 C5.65314251 1.93448975 2.02785738 2.76652859 -1.59765625 3.59765625 C-3.14646484 3.95537109 -3.14646484 3.95537109 -4.7265625 4.3203125 C-5.71269531 4.54589844 -6.69882812 4.77148438 -7.71484375 5.00390625 C-8.6260498 5.21337891 -9.53725586 5.42285156 -10.47607422 5.63867188 C-12.72265625 6.09765625 -12.72265625 6.09765625 -14.72265625 6.09765625 C-14.72265625 5.43765625 -14.72265625 4.77765625 -14.72265625 4.09765625 C-13.94019531 3.89269531 -13.15773438 3.68773437 -12.3515625 3.4765625 C-11.33964844 3.20714844 -10.32773437 2.93773437 -9.28515625 2.66015625 C-8.27582031 2.39332031 -7.26648438 2.12648438 -6.2265625 1.8515625 C-0.08749557 0.00313829 -0.08749557 0.00313829 0 0 Z " fill="#F8F0DA" transform="translate(496.72265625,284.90234375)"/>
<path d="M0 0 C0 0.33 0 0.66 0 1 C-3.49873754 1.50910422 -6.99915601 2.005606 -10.5 2.5 C-11.97339844 2.71462891 -11.97339844 2.71462891 -13.4765625 2.93359375 C-19.04789162 3.71357983 -24.37493985 4.160716 -30 4 C-28.15358987 2.07331117 -26.70391034 1.05808298 -24.01171875 0.8359375 C-22.46060917 0.86272696 -20.90971452 0.90520634 -19.359375 0.9609375 C-17.1621937 0.99731467 -15.16940521 0.82107197 -13 0.5 C-8.66046948 -0.1211828 -4.37548393 -0.09115592 0 0 Z " fill="#C58949" transform="translate(640,280)"/>
<path d="M0 0 C0.99 1.32 1.98 2.64 3 4 C-0.3 7.3 -3.6 10.6 -7 14 C-7.66 13.67 -8.32 13.34 -9 13 C-6.03 8.71 -3.06 4.42 0 0 Z " fill="#60AD8B" transform="translate(274,255)"/>
<path d="M0 0 C-0.8125 1.9375 -0.8125 1.9375 -2 4 C-5.33185722 5.11061907 -8.52574827 5.51238572 -12 6 C-13.33917261 6.30903983 -14.67653254 6.62942911 -16 7 C-16 6.34 -16 5.68 -16 5 C-14.02 4.34 -12.04 3.68 -10 3 C-10 2.34 -10 1.68 -10 1 C-6.59437148 0.22157062 -3.49234244 -0.09978121 0 0 Z " fill="#D0C0AD" transform="translate(624,219)"/>
<path d="M0 0 C0.65355469 0.39960938 1.30710938 0.79921875 1.98046875 1.2109375 C-1.55741811 3.17051894 -5.20733726 4.2698463 -9.08203125 5.3984375 C-10.31050781 5.76324219 -11.53898438 6.12804687 -12.8046875 6.50390625 C-16.01953125 7.2109375 -16.01953125 7.2109375 -19.01953125 6.2109375 C-16.46566733 4.98052128 -13.9042236 3.77689166 -11.33203125 2.5859375 C-10.61080078 2.2353125 -9.88957031 1.8846875 -9.14648438 1.5234375 C-3.69534695 -0.96566635 -3.69534695 -0.96566635 0 0 Z " fill="#414141" transform="translate(221.01953125,454.7890625)"/>
<path d="M0 0 C0.66 0.33 1.32 0.66 2 1 C-1.625 4 -1.625 4 -5 4 C-5.2475 4.639375 -5.495 5.27875 -5.75 5.9375 C-7 8 -7 8 -8.9375 8.9375 C-11 9 -11 9 -12.62890625 7.50390625 C-13.08136719 7.00761719 -13.53382813 6.51132812 -14 6 C-11.71220962 4.96959833 -9.42048864 3.95047982 -7.125 2.9375 C-6.47402344 2.64294922 -5.82304688 2.34839844 -5.15234375 2.04492188 C-3.45989459 1.30338487 -1.73131425 0.64560999 0 0 Z " fill="#F5F5E6" transform="translate(524,259)"/>
<path d="M0 0 C-0.60183749 2.02045442 -1.27306096 4.02111039 -2 6 C-2.99 6.495 -2.99 6.495 -4 7 C-4 6.34 -4 5.68 -4 5 C-5.0725 5.185625 -6.145 5.37125 -7.25 5.5625 C-10.51946406 5.94393747 -11.99327978 5.89802485 -15 5 C-12.8765984 4.16260219 -10.7512272 3.33019717 -8.625 2.5 C-7.44164062 2.0359375 -6.25828125 1.571875 -5.0390625 1.09375 C-2 0 -2 0 0 0 Z " fill="#D4934C" transform="translate(529,252)"/>
<path d="M0 0 C2 1 2 1 3 3 C1.4447088 3.70365602 -0.11964827 4.38729378 -1.6875 5.0625 C-2.55761719 5.44535156 -3.42773438 5.82820312 -4.32421875 6.22265625 C-7.32213864 7.0935848 -9.03280153 6.85006226 -12 6 C-12 5.34 -12 4.68 -12 4 C-10.4221875 3.566875 -10.4221875 3.566875 -8.8125 3.125 C-5.12231429 2.11369036 -5.12231429 2.11369036 -2.1875 0.8125 C-1.465625 0.544375 -0.74375 0.27625 0 0 Z " fill="#130A0B" transform="translate(561,236)"/>
<path d="M0 0 C0.33 0.66 0.66 1.32 1 2 C-0.66666667 3.66666667 -2.33333333 5.33333333 -4 7 C-4.825 7.94875 -5.65 8.8975 -6.5 9.875 C-9 12 -9 12 -11.8125 11.8125 C-12.534375 11.544375 -13.25625 11.27625 -14 11 C-14 10.01 -14 9.02 -14 8 C-12.68 7.67 -11.36 7.34 -10 7 C-10 7.99 -10 8.98 -10 10 C-6.7 6.7 -3.4 3.4 0 0 Z " fill="#0C1510" transform="translate(277,258)"/>
<path d="M0 0 C0.33 0.66 0.66 1.32 1 2 C0.01 3.485 0.01 3.485 -1 5 C-0.67 5.99 -0.34 6.98 0 8 C-1.28935919 9.14842923 -2.58156579 10.29366227 -3.875 11.4375 C-4.95394531 12.39462891 -4.95394531 12.39462891 -6.0546875 13.37109375 C-8 15 -8 15 -10 16 C-8.55797524 11.84848662 -6.4989562 8.70021555 -3.875 5.1875 C-3.15054687 4.21167969 -2.42609375 3.23585937 -1.6796875 2.23046875 C-0.84824219 1.12638672 -0.84824219 1.12638672 0 0 Z " fill="#D1F1E6" transform="translate(328,198)"/>
<path d="M0 0 C0.66 0.33 1.32 0.66 2 1 C1.67 1.66 1.34 2.32 1 3 C2.98 3 4.96 3 7 3 C7 2.34 7 1.68 7 1 C9.97 1.33 12.94 1.66 16 2 C16 2.33 16 2.66 16 3 C10.96145894 3.83211276 6.1874338 4.1078534 1.0625 4.0625 C0.37865234 4.05798828 -0.30519531 4.05347656 -1.00976562 4.04882812 C-2.67321604 4.0371956 -4.3366205 4.01926694 -6 4 C-5.01 3.67 -4.02 3.34 -3 3 C-3 2.34 -3 1.68 -3 1 C-2.01 0.67 -1.02 0.34 0 0 Z " fill="#1C1210" transform="translate(505,173)"/>
<path d="M0 0 C-7.16562789 0.28100502 -13.94546999 -0.79556805 -21 -2 C-21 -2.33 -21 -2.66 -21 -3 C-12.49462623 -4.38863245 -7.18198523 -4.78799015 0 0 Z " fill="#B72A20" transform="translate(481,432)"/>
<path d="M0 0 C0 0.66 0 1.32 0 2 C-4.29 3.65 -8.58 5.3 -13 7 C-13.33 5.68 -13.66 4.36 -14 3 C-12.4188708 2.49307308 -10.83498617 1.99473557 -9.25 1.5 C-7.92742188 1.08234375 -7.92742188 1.08234375 -6.578125 0.65625 C-4 0 -4 0 0 0 Z " fill="#E5A358" transform="translate(572,238)"/>
<path d="M0 0 C0.66 0.33 1.32 0.66 2 1 C-0.13625077 5.10926642 -2.34099999 7.26481817 -6.1875 9.8125 C-7.08855469 10.41707031 -7.98960937 11.02164063 -8.91796875 11.64453125 C-9.60503906 12.09183594 -10.29210937 12.53914063 -11 13 C-11.66 12.67 -12.32 12.34 -13 12 C-8.71 8.04 -4.42 4.08 0 0 Z " fill="#151515" transform="translate(324,104)"/>
<path d="M0 0 C2.72947644 0.30996259 5.45855985 0.62287975 8.1875 0.9375 C8.95642578 1.02451172 9.72535156 1.11152344 10.51757812 1.20117188 C14.38772828 1.64964421 18.19186624 2.1529001 22 3 C22 3.33 22 3.66 22 4 C15.07 3.67 8.14 3.34 1 3 C0.67 2.01 0.34 1.02 0 0 Z " fill="#250608" transform="translate(478,432)"/>
<path d="M0 0 C0 0.33 0 0.66 0 1 C-3.63 1.66 -7.26 2.32 -11 3 C-11 3.33 -11 3.66 -11 4 C-14.63 4 -18.26 4 -22 4 C-21.67 3.34 -21.34 2.68 -21 2 C-14.10098718 0.35882514 -7.07409145 -0.27741535 0 0 Z " fill="#C98A4A" transform="translate(529,175)"/>
<path d="M0 0 C0 0.99 0 1.98 0 3 C5.28 3.33 10.56 3.66 16 4 C16 4.33 16 4.66 16 5 C7.44062871 5.36741339 0.13777913 4.73977333 -8 2 C-7.38125 1.855625 -6.7625 1.71125 -6.125 1.5625 C-0.22222222 0 -0.22222222 0 0 0 Z " fill="#C7E7EF" transform="translate(120,514)"/>
<path d="M0 0 C0 0.66 0 1.32 0 2 C-0.763125 2.45375 -1.52625 2.9075 -2.3125 3.375 C-5.08994496 4.77965816 -5.08994496 4.77965816 -6.375 7.1875 C-8 9 -8 9 -11.6875 9.25 C-12.780625 9.1675 -13.87375 9.085 -15 9 C-12.59888822 6.36115438 -9.99444972 4.63586471 -6.9375 2.8125 C-5.62072266 2.01779297 -5.62072266 2.01779297 -4.27734375 1.20703125 C-2 0 -2 0 0 0 Z " fill="#CA8C4A" transform="translate(401,312)"/>
<path d="M0 0 C-0.33 0.66 -0.66 1.32 -1 2 C-2.65 2 -4.3 2 -6 2 C-5.67 2.99 -5.34 3.98 -5 5 C-7.97 4.67 -10.94 4.34 -14 4 C-11.58592302 2.39061535 -9.65955563 1.34509262 -7 0.3125 C-5.9790625 -0.09548828 -5.9790625 -0.09548828 -4.9375 -0.51171875 C-3 -1 -3 -1 0 0 Z " fill="#D3904A" transform="translate(551,245)"/>
<path d="M0 0 C0.99 0.33 1.98 0.66 3 1 C-0.3 4.63 -3.6 8.26 -7 12 C-7.66 10.68 -8.32 9.36 -9 8 C-7.68 8 -6.36 8 -5 8 C-5.33 6.68 -5.66 5.36 -6 4 C-4.68 4 -3.36 4 -2 4 C-1.34 2.68 -0.68 1.36 0 0 Z " fill="#0F1510" transform="translate(318,195)"/>
<path d="M0 0 C-7.85500435 4.959935 -15.13826168 4.0741501 -24 3 C-24 2.67 -24 2.34 -24 2 C-22.62328125 1.92652344 -22.62328125 1.92652344 -21.21875 1.8515625 C-13.15258617 1.41795884 -13.15258617 1.41795884 -5.25 -0.125 C-2 -1 -2 -1 0 0 Z " fill="#09141E" transform="translate(158,529)"/>
<path d="M0 0 C1.19921875 1.65234375 1.19921875 1.65234375 2 4 C0.76953125 6.69140625 0.76953125 6.69140625 -1.1875 9.5625 C-1.82042969 10.51253906 -2.45335937 11.46257812 -3.10546875 12.44140625 C-4.63481712 14.50681487 -6.11557133 16.26725908 -8 18 C-6.65150163 13.64029169 -4.95092154 9.68658562 -2.875 5.625 C-2.33617187 4.56539063 -1.79734375 3.50578125 -1.2421875 2.4140625 C-0.83226562 1.61742187 -0.42234375 0.82078125 0 0 Z " fill="#454545" transform="translate(172,394)"/>
<path d="M0 0 C0.68964844 0.0721875 1.37929688 0.144375 2.08984375 0.21875 C8.09588659 0.81193942 13.9657 1.09892295 20 1 C20 1.33 20 1.66 20 2 C13.4 2.66 6.8 3.32 0 4 C0 2.68 0 1.36 0 0 Z " fill="#F7EDDC" transform="translate(553,272)"/>
<path d="M0 0 C2.97 1.65 5.94 3.3 9 5 C8.67 5.99 8.34 6.98 8 8 C2.25 6.125 2.25 6.125 0 5 C0 3.35 0 1.7 0 0 Z " fill="#1C1C1C" transform="translate(511,498)"/>
<path d="M0 0 C-1 3 -1 3 -3.9375 4.9375 C-6.85524185 6.90250982 -7.85114989 7.7832197 -9 11 C-10.32 10.67 -11.64 10.34 -13 10 C-11.40517782 8.32438946 -9.79883156 6.65974066 -8.1875 5 C-7.29417969 4.071875 -6.40085937 3.14375 -5.48046875 2.1875 C-3 0 -3 0 0 0 Z " fill="#D34137" transform="translate(589,391)"/>
<path d="M0 0 C0.63550781 0.27585937 1.27101563 0.55171875 1.92578125 0.8359375 C2.25578125 1.8259375 2.58578125 2.8159375 2.92578125 3.8359375 C-6.48424153 2.87238397 -6.48424153 2.87238397 -11.07421875 1.8359375 C-7.6055259 -2.08519355 -4.62438659 -1.04446047 0 0 Z " fill="#230708" transform="translate(535.07421875,354.1640625)"/>
<path d="M0 0 C0.66 0.33 1.32 0.66 2 1 C1.01 2.1446875 1.01 2.1446875 0 3.3125 C-2.29850538 5.84277939 -2.29850538 5.84277939 -2 9 C-3.98 9.33 -5.96 9.66 -8 10 C-8 10.99 -8 11.98 -8 13 C-8.99 12.67 -9.98 12.34 -11 12 C-8.30721758 8.40962345 -5.51052236 5.77146502 -2 3 C-1.34 2.01 -0.68 1.02 0 0 Z " fill="#C7DDD6" transform="translate(420,96)"/>
<path d="M0 0 C2.06266324 0.79124124 4.12512379 1.58301091 6.1875 2.375 C7.91033203 3.03628906 7.91033203 3.03628906 9.66796875 3.7109375 C12.45335994 4.78852143 15.22997721 5.8836443 18 7 C18 7.33 18 7.66 18 8 C15.69 8 13.38 8 11 8 C10.67 7.34 10.34 6.68 10 6 C8.01363702 5.29373761 6.01151741 4.63106429 4 4 C2.65278717 3.36184656 1.31252882 2.70674629 0 2 C0 1.34 0 0.68 0 0 Z " fill="#F4E7E2" transform="translate(532,366)"/>
<path d="M0 0 C-0.495 0.45375 -0.99 0.9075 -1.5 1.375 C-3.22609337 2.87635519 -3.22609337 2.87635519 -3 5 C-6.63 5 -10.26 5 -14 5 C-11.75043698 2.75043698 -9.93676737 1.99489035 -7 0.8125 C-6.113125 0.44769531 -5.22625 0.08289063 -4.3125 -0.29296875 C-2 -1 -2 -1 0 0 Z " fill="#F7EDD8" transform="translate(540,254)"/>
<path d="M0 0 C1.65 0 3.3 0 5 0 C5.33 1.98 5.66 3.96 6 6 C6.66 6 7.32 6 8 6 C7.67 7.32 7.34 8.64 7 10 C3.66442368 7.0094833 1.84916079 4.06815373 0 0 Z " fill="#E1EFF0" transform="translate(87,493)"/>
<path d="M0 0 C2.10304477 -0.1080023 4.20766909 -0.18558987 6.3125 -0.25 C8.07013672 -0.31960938 8.07013672 -0.31960938 9.86328125 -0.390625 C13 0 13 0 14.91796875 2.015625 C15.27503906 2.67046875 15.63210938 3.3253125 16 4 C10.49191603 3.40984815 5.35121931 2.43336231 0 1 C0 0.67 0 0.34 0 0 Z " fill="#C84038" transform="translate(484,350)"/>
<path d="M0 0 C-0.66 0.66 -1.32 1.32 -2 2 C-2.33 2.66 -2.66 3.32 -3 4 C-9.0546875 4.1953125 -9.0546875 4.1953125 -11 4 C-11.66 3.34 -12.32 2.68 -13 2 C-11.5882217 1.46605821 -10.17029756 0.94834896 -8.75 0.4375 C-7.96109375 0.14746094 -7.1721875 -0.14257812 -6.359375 -0.44140625 C-3.80896548 -1.04522837 -2.44677771 -0.8473932 0 0 Z " fill="#1F130F" transform="translate(421,318)"/>
<path d="M0 0 C0.66 0.33 1.32 0.66 2 1 C1.88637738 2.4800841 1.75877092 3.95910074 1.625 5.4375 C1.55539062 6.26121094 1.48578125 7.08492187 1.4140625 7.93359375 C1.27742187 8.61550781 1.14078125 9.29742187 1 10 C0.01 10.495 0.01 10.495 -1 11 C-1 9.68 -1 8.36 -1 7 C-1.66 7 -2.32 7 -3 7 C-1.125 2.25 -1.125 2.25 0 0 Z " fill="#170E0E" transform="translate(682,215)"/>
<path d="M0 0 C2.64 0 5.28 0 8 0 C8 0.66 8 1.32 8 2 C7.34 2.66 6.68 3.32 6 4 C3.6171875 3.9765625 3.6171875 3.9765625 0.875 3.625 C-0.03507813 3.51414063 -0.94515625 3.40328125 -1.8828125 3.2890625 C-2.58148437 3.19367188 -3.28015625 3.09828125 -4 3 C-2.68 2.67 -1.36 2.34 0 2 C0 1.34 0 0.68 0 0 Z " fill="#E7A65B" transform="translate(643,188)"/>
<path d="M0 0 C5.28 0.66 10.56 1.32 16 2 C16 2.33 16 2.66 16 3 C13.89651926 3.19504458 11.79217415 3.38078496 9.6875 3.5625 C8.51574219 3.66691406 7.34398437 3.77132813 6.13671875 3.87890625 C3 4 3 4 0 3 C0 2.01 0 1.02 0 0 Z " fill="#1D0406" transform="translate(529,440)"/>
<path d="M0 0 C-1.64178265 4.77609498 -4.26546702 8.79382904 -7 13 C-7.33 11.68 -7.66 10.36 -8 9 C-7.34 9 -6.68 9 -6 9 C-5.7834375 8.13375 -5.7834375 8.13375 -5.5625 7.25 C-5.2840625 6.13625 -5.2840625 6.13625 -5 5 C-4.855625 4.278125 -4.71125 3.55625 -4.5625 2.8125 C-4.376875 2.214375 -4.19125 1.61625 -4 1 C-2 0 -2 0 0 0 Z " fill="#F4E2DE" transform="translate(565,415)"/>
<path d="M0 0 C1.77226453 0.28284018 3.542788 0.57660498 5.3125 0.875 C6.29863281 1.03742188 7.28476562 1.19984375 8.30078125 1.3671875 C11 2 11 2 14 4 C10.7 4.33 7.4 4.66 4 5 C4 4.34 4 3.68 4 3 C3.34 3 2.68 3 2 3 C2 2.34 2 1.68 2 1 C1.34 0.67 0.68 0.34 0 0 Z " fill="#C02C22" transform="translate(535,358)"/>
<path d="M0 0 C1.65 0 3.3 0 5 0 C2.23612808 2.15178156 -0.56533069 3.98370421 -3.625 5.6875 C-4.40101563 6.12449219 -5.17703125 6.56148438 -5.9765625 7.01171875 C-8 8 -8 8 -10 8 C-10.33 7.01 -10.66 6.02 -11 5 C-7.535 4.505 -7.535 4.505 -4 4 C-4 3.34 -4 2.68 -4 2 C-2.68 2 -1.36 2 0 2 C0 1.34 0 0.68 0 0 Z " fill="#22120D" transform="translate(422,297)"/>
<path d="M0 0 C0 0.99 0 1.98 0 3 C-1.051875 2.95875 -2.10375 2.9175 -3.1875 2.875 C-6.8081317 2.99370924 -8.72876085 3.67382197 -12 5 C-14.14453125 4.55859375 -14.14453125 4.55859375 -16 4 C-13.71144298 3.13656269 -11.4198072 2.2840189 -9.125 1.4375 C-8.47402344 1.19064453 -7.82304688 0.94378906 -7.15234375 0.68945312 C-2.2265625 -1.11328125 -2.2265625 -1.11328125 0 0 Z " fill="#C28A4B" transform="translate(575,236)"/>
<path d="M0 0 C1 3 1 3 0.22265625 4.82421875 C-0.8515625 6.54947917 -1.92578125 8.27473958 -3 10 C-3.66 10 -4.32 10 -5 10 C-5.33 11.32 -5.66 12.64 -6 14 C-6.66 14 -7.32 14 -8 14 C-6.6744419 10.37723685 -5.05653045 7.36494652 -2.875 4.1875 C-2.33617187 3.39730469 -1.79734375 2.60710937 -1.2421875 1.79296875 C-0.83226562 1.20128906 -0.42234375 0.60960937 0 0 Z " fill="#23140B" transform="translate(691,201)"/>
<path d="M0 0 C1.98 0.66 3.96 1.32 6 2 C4.63016497 5.16115776 4.0109362 5.9927092 1 8 C-0.35439668 5.29120665 -0.06501451 2.99066732 0 0 Z " fill="#D7954B" transform="translate(692,190)"/>
<path d="M0 0 C5.61 0.33 11.22 0.66 17 1 C17 1.66 17 2.32 17 3 C17.66 3.33 18.32 3.66 19 4 C12.60794144 3.27637073 6.31972924 2.19656638 0 1 C0 0.67 0 0.34 0 0 Z " fill="#E5B06D" transform="translate(618,186)"/>
<path d="M0 0 C0.33 1.32 0.66 2.64 1 4 C-2.3 4.33 -5.6 4.66 -9 5 C-8.67 4.01 -8.34 3.02 -8 2 C-5.27366306 0.89786379 -2.95855967 0 0 0 Z " fill="#1A1A1A" transform="translate(228,451)"/>
<path d="M0 0 C0.99 0.33 1.98 0.66 3 1 C1.34784004 4.57967992 -0.73124352 7.77982952 -3 11 C-3.33 11 -3.66 11 -4 11 C-4 9.02 -4 7.04 -4 5 C-2.68 4.67 -1.36 4.34 0 4 C0 2.68 0 1.36 0 0 Z " fill="#C82D21" transform="translate(586,416)"/>
<path d="M0 0 C1.00273157 3.2177207 0.99373398 5.7864626 0.625 9.125 C0.53476562 9.99382812 0.44453125 10.86265625 0.3515625 11.7578125 C0 14 0 14 -1 16 C-1.66 16 -2.32 16 -3 16 C-3.33 16.99 -3.66 17.98 -4 19 C-3.46048934 12.31006781 -2.11293829 6.36539272 0 0 Z " fill="#E2B073" transform="translate(646,236)"/>
<path d="M0 0 C-5.96823735 3.9788249 -10.15331613 4.18046274 -17 3 C-17 2.67 -17 2.34 -17 2 C-5.47835991 -0.29612756 -5.47835991 -0.29612756 0 0 Z " fill="#3D3229" transform="translate(617,221)"/>
<path d="M0 0 C0 0.66 0 1.32 0 2 C-2.52475462 3.26237731 -4.31200466 3.09856404 -7.125 3.0625 C-8.03507812 3.05347656 -8.94515625 3.04445313 -9.8828125 3.03515625 C-10.58148438 3.02355469 -11.28015625 3.01195313 -12 3 C-4.82142857 -1.78571429 -4.82142857 -1.78571429 0 0 Z " fill="#62B28E" transform="translate(411,65)"/>
<path d="M0 0 C-1.28716647 1.00578589 -2.57988658 2.00446798 -3.875 3 C-4.95394531 3.8353125 -4.95394531 3.8353125 -6.0546875 4.6875 C-8 6 -8 6 -10 6 C-10 4.68 -10 3.36 -10 2 C-8.71211992 1.46987262 -7.41953322 0.9511671 -6.125 0.4375 C-5.40570313 0.14746094 -4.68640625 -0.14257812 -3.9453125 -0.44140625 C-2 -1 -2 -1 0 0 Z " fill="#373737" transform="translate(363,454)"/>
<path d="M0 0 C0.66 0 1.32 0 2 0 C4.32992644 3.49488966 5.13620929 5.00761804 4.5625 9.1875 C4.376875 10.115625 4.19125 11.04375 4 12 C1.49484216 9.49484216 0.94900914 7.38931835 0 4 C0 2.68 0 1.36 0 0 Z " fill="#53A7C5" transform="translate(146,437)"/>
<path d="M0 0 C0.97110486 3.02121511 1.13617383 5.00463263 0 8 C-0.99 8.495 -0.99 8.495 -2 9 C-2.33 9.99 -2.66 10.98 -3 12 C-3.99 11.67 -4.98 11.34 -6 11 C-6 10.34 -6 9.68 -6 9 C-5.34 9 -4.68 9 -4 9 C-3.71125 8.2575 -3.4225 7.515 -3.125 6.75 C-2.17697356 4.43260203 -1.15154089 2.22082885 0 0 Z " fill="#D34035" transform="translate(560,423)"/>
<path d="M0 0 C3.63 0.33 7.26 0.66 11 1 C9.515 2.485 9.515 2.485 8 4 C5.73828125 3.85546875 5.73828125 3.85546875 3.3125 3.1875 C2.10013672 2.86845703 2.10013672 2.86845703 0.86328125 2.54296875 C-0.05904297 2.27419922 -0.05904297 2.27419922 -1 2 C-0.67 1.34 -0.34 0.68 0 0 Z " fill="#C92D23" transform="translate(498,351)"/>
<path d="M0 0 C-1.5625 2.5625 -1.5625 2.5625 -4 5 C-7.75 4.8125 -7.75 4.8125 -11 4 C-3.77464789 -1.88732394 -3.77464789 -1.88732394 0 0 Z " fill="#D09047" transform="translate(481,273)"/>
<path d="M0 0 C-1.15173355 2.46800047 -2.04783565 4.04783565 -4 6 C-6.32275177 6.40047444 -8.65739357 6.7397104 -11 7 C-4.48275862 0 -4.48275862 0 0 0 Z " fill="#0F1E16" transform="translate(366,193)"/>
<path d="M0 0 C1.32 0 2.64 0 4 0 C4 3.63 4 7.26 4 11 C2.68 10.67 1.36 10.34 0 10 C0.66 7.36 1.32 4.72 2 2 C1.34 2 0.68 2 0 2 C0 1.34 0 0.68 0 0 Z " fill="#0C1510" transform="translate(467,48)"/>
<path d="M0 0 C0.99 0.33 1.98 0.66 3 1 C0.36 4.3 -2.28 7.6 -5 11 C-5.33 9.68 -5.66 8.36 -6 7 C-5.34 7 -4.68 7 -4 7 C-4 6.01 -4 5.02 -4 4 C-3.01 4 -2.02 4 -1 4 C-0.67 2.68 -0.34 1.36 0 0 Z " fill="#F4E1DD" transform="translate(571,404)"/>
<path d="M0 0 C4.29193499 -0.07803518 8.53254915 -0.03831564 12.8125 0.3125 C13.54082031 0.37050781 14.26914062 0.42851562 15.01953125 0.48828125 C17.42888457 1.11081633 18.4097328 2.12880232 20 4 C13.29221378 3.22602467 6.65425699 2.14231412 0 1 C0 0.67 0 0.34 0 0 Z " fill="#2E0906" transform="translate(504,351)"/>
<path d="M0 0 C0.99 0 1.98 0 3 0 C3 1.32 3 2.64 3 4 C-1.29 3.67 -5.58 3.34 -10 3 C-10 2.67 -10 2.34 -10 2 C-9.04287109 1.90912109 -9.04287109 1.90912109 -8.06640625 1.81640625 C-6.82697266 1.69072266 -6.82697266 1.69072266 -5.5625 1.5625 C-4.73878906 1.48128906 -3.91507813 1.40007812 -3.06640625 1.31640625 C-1.01337975 1.21069185 -1.01337975 1.21069185 0 0 Z " fill="#24170E" transform="translate(648,174)"/>
<path d="M0 0 C0.66 0.33 1.32 0.66 2 1 C-1.3 3.97 -4.6 6.94 -8 10 C-8.99 9.34 -9.98 8.68 -11 8 C-7.37 5.36 -3.74 2.72 0 0 Z " fill="#384841" transform="translate(417,98)"/>
<path d="M0 0 C0.33 0 0.66 0 1 0 C1 4.29 1 8.58 1 13 C0.01 13.33 -0.98 13.66 -2 14 C-1.85795259 12.41632253 -1.71119847 10.83306682 -1.5625 9.25 C-1.48128906 8.36828125 -1.40007813 7.4865625 -1.31640625 6.578125 C-1.03761535 4.30649548 -0.61209423 2.20148177 0 0 Z " fill="#2B1A13" transform="translate(665,256)"/>
<path d="M0 0 C-2.70879335 1.35439668 -5.00933268 1.06501451 -8 1 C-8 0.34 -8 -0.32 -8 -1 C-9.32 -1.33 -10.64 -1.66 -12 -2 C-6.84854146 -3.28786464 -4.42296703 -2.94864468 0 0 Z " fill="#131318" transform="translate(580,232)"/>
<path d="M0 0 C0.33 0.99 0.66 1.98 1 3 C-1.64 5.64 -4.28 8.28 -7 11 C-7.66 10.67 -8.32 10.34 -9 10 C-6.03 6.7 -3.06 3.4 0 0 Z " fill="#E0F5EE" transform="translate(360,159)"/>
<path d="M0 0 C3.45925163 1.2491742 6.14693203 2.67527795 9 5 C8.01 5.66 7.02 6.32 6 7 C5.67 6.34 5.34 5.68 5 5 C3.35 5 1.7 5 0 5 C0 3.35 0 1.7 0 0 Z " fill="#F4E9E6" transform="translate(577,387)"/>
<path d="M0 0 C0.66 0 1.32 0 2 0 C2.95465783 2.16967689 3.14401212 3.56328793 2.3984375 5.82421875 C1.64129615 7.5684743 0.82390802 9.28627131 0 11 C-0.33 11 -0.66 11 -1 11 C-1.0270043 9.54176788 -1.04639787 8.08339325 -1.0625 6.625 C-1.07410156 5.81289062 -1.08570313 5.00078125 -1.09765625 4.1640625 C-1 2 -1 2 0 0 Z " fill="#F7F7E9" transform="translate(652,211)"/>
<path d="M0 0 C0.33 0.99 0.66 1.98 1 3 C-1.64 5.64 -4.28 8.28 -7 11 C-7.66 10.67 -8.32 10.34 -9 10 C-6.03 6.7 -3.06 3.4 0 0 Z " fill="#5DAC89" transform="translate(326,189)"/>
<path d="M0 0 C0 0.66 0 1.32 0 2 C1.093125 1.95875 2.18625 1.9175 3.3125 1.875 C7 2 7 2 10 4 C4.06 3.34 -1.88 2.68 -8 2 C-4 0 -4 0 0 0 Z " fill="#E4AF6C" transform="translate(606,182)"/>
<path d="M0 0 C0.94875 0.04125 1.8975 0.0825 2.875 0.125 C-1.875 5 -1.875 5 -4.125 6.125 C-4.75 4.25 -4.75 4.25 -5.125 2.125 C-3.125 0.125 -3.125 0.125 0 0 Z " fill="#ECF9F5" transform="translate(378.125,161.875)"/>
<path d="M0 0 C0.66 0.33 1.32 0.66 2 1 C1.360625 1.598125 0.72125 2.19625 0.0625 2.8125 C-2.20310389 4.90810337 -2.20310389 4.90810337 -3 8 C-5.475 7.01 -5.475 7.01 -8 6 C-5.63404067 3.38499232 -3.13950774 1.61000397 0 0 Z " fill="#101C16" transform="translate(433,150)"/>
<path d="M0 0 C0 3.77910478 -0.99703962 4.46106101 -3.5 7.1875 C-4.1496875 7.90292969 -4.799375 8.61835938 -5.46875 9.35546875 C-5.9740625 9.89816406 -6.479375 10.44085938 -7 11 C-7.99 10.67 -8.98 10.34 -10 10 C-6.7 6.7 -3.4 3.4 0 0 Z " fill="#DEF6EE" transform="translate(391,126)"/>
<path d="M0 0 C0.144375 0.598125 0.28875 1.19625 0.4375 1.8125 C0.8872439 3.56150404 1.42892341 5.28677023 2 7 C-1.98196457 8.05404945 -4.98195309 7.84098656 -9 7 C-9 6.67 -9 6.34 -9 6 C-6.69 6 -4.38 6 -2 6 C-1.34 4.02 -0.68 2.04 0 0 Z " fill="#2C0908" transform="translate(575,440)"/>
<path d="M0 0 C-0.33 0.99 -0.66 1.98 -1 3 C-1.99 3.33 -2.98 3.66 -4 4 C-4.66 4.66 -5.32 5.32 -6 6 C-8.32275177 6.40047444 -10.65739357 6.7397104 -13 7 C-4.25 0 -4.25 0 0 0 Z " fill="#CA8E4A" transform="translate(419,302)"/>
<path d="M0 0 C0.33 1.32 0.66 2.64 1 4 C-1.78823655 5.0326802 -2.8677274 5.04509293 -5.75 4.0625 C-6.4925 3.711875 -7.235 3.36125 -8 3 C-2 0 -2 0 0 0 Z " fill="#D4934F" transform="translate(558,241)"/>
<path d="M0 0 C-1.76414623 0.72482748 -3.53662904 1.42939296 -5.3125 2.125 C-6.79169922 2.71667969 -6.79169922 2.71667969 -8.30078125 3.3203125 C-9.19152344 3.54460937 -10.08226562 3.76890625 -11 4 C-11.99 3.34 -12.98 2.68 -14 2 C-12.42085985 1.46658816 -10.83645613 0.94874237 -9.25 0.4375 C-8.36828125 0.14746094 -7.4865625 -0.14257812 -6.578125 -0.44140625 C-3.92165684 -1.01697435 -2.52968894 -0.89248371 0 0 Z " fill="#C08F56" transform="translate(608,226)"/>
<path d="M0 0 C2.475 0.495 2.475 0.495 5 1 C4.39816251 3.02045442 3.72693904 5.02111039 3 7 C2.01 7.495 2.01 7.495 1 8 C0.67 5.36 0.34 2.72 0 0 Z " fill="#F7F4E2" transform="translate(659,195)"/>
<path d="M0 0 C3.96 0 7.92 0 12 0 C10.02 0.99 10.02 0.99 8 2 C7.67 2.33 7.34 2.66 7 3 C4.66702567 3.04092937 2.33294775 3.04241723 0 3 C0 2.01 0 1.02 0 0 Z " fill="#FBF6E6" transform="translate(586,183)"/>
<path d="M0 0 C0.99 0.33 1.98 0.66 3 1 C0.03716687 3.38672669 -2.94270509 5.7353371 -6 8 C-6.66 7.67 -7.32 7.34 -8 7 C-6.74057614 5.80040625 -5.46704714 4.61560557 -4.1875 3.4375 C-3.12595703 2.44556641 -3.12595703 2.44556641 -2.04296875 1.43359375 C-1.36878906 0.96050781 -0.69460937 0.48742187 0 0 Z " fill="#3C3C3C" transform="translate(195,430)"/>
<path d="M0 0 C0.33 0.99 0.66 1.98 1 3 C-1.31 5.31 -3.62 7.62 -6 10 C-6.66 9.67 -7.32 9.34 -8 9 C-5.36 6.03 -2.72 3.06 0 0 Z " fill="#D9D9D9" transform="translate(229,328)"/>
<path d="M0 0 C-3.2837938 2.48772258 -4.61198583 3.03180444 -8.8125 2.6875 C-9.864375 2.460625 -10.91625 2.23375 -12 2 C-7.72170329 -0.29194467 -4.74957752 -1.52664992 0 0 Z " fill="#331F14" transform="translate(441,313)"/>
<path d="M0 0 C4.29 0 8.58 0 13 0 C13 0.33 13 0.66 13 1 C8.38 1.66 3.76 2.32 -1 3 C-0.67 2.01 -0.34 1.02 0 0 Z " fill="#F9F0DF" transform="translate(534,277)"/>
<path d="M0 0 C0.66 0.33 1.32 0.66 2 1 C-1.96 2.98 -5.92 4.96 -10 7 C-10.66 6.34 -11.32 5.68 -12 5 C-10.04578965 4.13644222 -8.08648653 3.28440066 -6.125 2.4375 C-5.03445313 1.96183594 -3.94390625 1.48617187 -2.8203125 0.99609375 C-1.88960937 0.66738281 -0.95890625 0.33867187 0 0 Z " fill="#F6E9CB" transform="translate(580,236)"/>
<path d="M0 0 C0.99 0.66 1.98 1.32 3 2 C-0.465 4.97 -0.465 4.97 -4 8 C-4 6.02 -4 4.04 -4 2 C-3.01 2.495 -3.01 2.495 -2 3 C-1.34 2.01 -0.68 1.02 0 0 Z " fill="#0B0F0C" transform="translate(345,164)"/>
<path d="M0 0 C1.07310858 3.27185553 0.89263102 5.42947592 0.0625 8.75 C-0.22947266 9.94882813 -0.22947266 9.94882813 -0.52734375 11.171875 C-0.68332031 11.77515625 -0.83929688 12.3784375 -1 13 C-1.33 13 -1.66 13 -2 13 C-2 11.02 -2 9.04 -2 7 C-2.66 6.67 -3.32 6.34 -4 6 C-2.66666667 4 -1.33333333 2 0 0 Z " fill="#DDF4EC" transform="translate(451,78)"/>
<path d="M0 0 C1.32 0 2.64 0 4 0 C4 0.66 4 1.32 4 2 C5.32 2 6.64 2 8 2 C8.66 3.65 9.32 5.3 10 7 C5.56541027 5.6062718 3.12621626 3.39417765 0 0 Z " fill="#DEF1F3" transform="translate(96,505)"/>
<path d="M0 0 C4.875 2.625 4.875 2.625 6 6 C4.02 6.99 4.02 6.99 2 8 C1.34 5.36 0.68 2.72 0 0 Z " fill="#B92B23" transform="translate(609,388)"/>
<path d="M0 0 C2.31 0.33 4.62 0.66 7 1 C7 1.66 7 2.32 7 3 C7.99 2.67 8.98 2.34 10 2 C10.33 3.32 10.66 4.64 11 6 C7.2089881 4.55049545 3.6125362 2.84827434 0 1 C0 0.67 0 0.34 0 0 Z " fill="#D4433B" transform="translate(571,383)"/>
<path d="M0 0 C7.75 -0.125 7.75 -0.125 10 1 C9.67 1.99 9.34 2.98 9 4 C6.03 3.01 3.06 2.02 0 1 C0 0.67 0 0.34 0 0 Z " fill="#D84539" transform="translate(552,374)"/>
<path d="M0 0 C1.45823212 -0.0270043 2.91660675 -0.04639787 4.375 -0.0625 C5.18710937 -0.07410156 5.99921875 -0.08570313 6.8359375 -0.09765625 C9 0 9 0 11 1 C11 1.99 11 2.98 11 4 C7.37 3.01 3.74 2.02 0 1 C0 0.67 0 0.34 0 0 Z " fill="#370B0A" transform="translate(564,366)"/>
<path d="M0 0 C0 0.66 0 1.32 0 2 C-3.27037599 5.27037599 -6.5130254 5.56856013 -11 6 C-9.73083275 3.46166551 -8.58375191 3.10599099 -6.0625 1.875 C-5.35222656 1.52179688 -4.64195312 1.16859375 -3.91015625 0.8046875 C-2 0 -2 0 0 0 Z " fill="#C5894B" transform="translate(440,291)"/>
<path d="M0 0 C2.97 0.33 5.94 0.66 9 1 C6.53721199 3.46278801 4.29323018 3.99771255 1 5 C0.67 3.35 0.34 1.7 0 0 Z " fill="#E5A358" transform="translate(536,249)"/>
<path d="M0 0 C0.33 1.32 0.66 2.64 1 4 C-1.31 5.98 -3.62 7.96 -6 10 C-6.66 9.67 -7.32 9.34 -8 9 C-5.36 6.03 -2.72 3.06 0 0 Z " fill="#1F1F1F" transform="translate(307,195)"/>
<path d="M0 0 C1.04449911 3.13349732 0.93423645 3.98968256 0 7 C-1.98 7.33 -3.96 7.66 -6 8 C-4.02 5.36 -2.04 2.72 0 0 Z " fill="#231712" transform="translate(698,192)"/>
<path d="M0 0 C2.475 0.495 2.475 0.495 5 1 C3.63016497 4.16115776 3.0109362 4.9927092 0 7 C0 4.69 0 2.38 0 0 Z " fill="#1E1E1E" transform="translate(729,183)"/>
<path d="M0 0 C0.66 0.33 1.32 0.66 2 1 C1.67 2.32 1.34 3.64 1 5 C-0.65 4.67 -2.3 4.34 -4 4 C-4 4.66 -4 5.32 -4 6 C-5.32 5.67 -6.64 5.34 -8 5 C-6.71475739 4.13619741 -5.42157581 3.28419631 -4.125 2.4375 C-3.04605469 1.72400391 -3.04605469 1.72400391 -1.9453125 0.99609375 C-1.30335938 0.66738281 -0.66140625 0.33867187 0 0 Z " fill="#0F1E16" transform="translate(389,177)"/>
<path d="M0 0 C0 0.66 0 1.32 0 2 C-1.75 3.5078125 -1.75 3.5078125 -4 5.125 C-4.7425 5.66382813 -5.485 6.20265625 -6.25 6.7578125 C-6.8275 7.16773438 -7.405 7.57765625 -8 8 C-8.66 7.67 -9.32 7.34 -10 7 C-8.71034824 5.62437146 -7.37310707 4.29233607 -6 3 C-5.34 3 -4.68 3 -4 3 C-4 2.34 -4 1.68 -4 1 C-2 0 -2 0 0 0 Z " fill="#350B08" transform="translate(612,396)"/>
<path d="M0 0 C2.97 0 5.94 0 9 0 C6.06171403 2.50298434 3.82097239 3.46930939 0 4 C0 2.68 0 1.36 0 0 Z " fill="#22130C" transform="translate(459,277)"/>
<path d="M0 0 C1.32 0.33 2.64 0.66 4 1 C3.25 2.9375 3.25 2.9375 2 5 C-0.125 5.75 -0.125 5.75 -2 6 C-1.49396008 3.83125748 -1.00016187 2.00032373 0 0 Z " fill="#E9A152" transform="translate(529,252)"/>
<path d="M0 0 C0.33 0 0.66 0 1 0 C1 1.98 1 3.96 1 6 C-0.65 6.66 -2.3 7.32 -4 8 C-2.25 2.25 -2.25 2.25 0 0 Z " fill="#211410" transform="translate(670,246)"/>
<path d="M0 0 C1.32 0 2.64 0 4 0 C4.33 0.99 4.66 1.98 5 3 C3.02 3.99 1.04 4.98 -1 6 C-1 3 -1 3 0 0 Z " fill="#1C1C1C" transform="translate(326,102)"/>
<path d="M0 0 C2.64 0.99 5.28 1.98 8 3 C7.01 3.66 6.02 4.32 5 5 C2.3125 4.125 2.3125 4.125 0 3 C0 2.01 0 1.02 0 0 Z " fill="#D32F24" transform="translate(574,370)"/>
<path d="M0 0 C1.98 0.99 1.98 0.99 4 2 C4 2.99 4 3.98 4 5 C2.68 5.33 1.36 5.66 0 6 C0 4.02 0 2.04 0 0 Z " fill="#F5FBF9" transform="translate(533,368)"/>
<path d="M0 0 C-3.42346555 3.14958831 -6.44262737 3.56179109 -11 4 C-3.77464789 -1.88732394 -3.77464789 -1.88732394 0 0 Z " fill="#F6E7CF" transform="translate(526,260)"/>
<path d="M0 0 C0.33 0.99 0.66 1.98 1 3 C-0.21484375 4.82421875 -0.21484375 4.82421875 -1.9375 6.6875 C-2.50339844 7.31011719 -3.06929688 7.93273437 -3.65234375 8.57421875 C-4.09707031 9.04472656 -4.54179687 9.51523438 -5 10 C-5.66 9.67 -6.32 9.34 -7 9 C-4.69 6.03 -2.38 3.06 0 0 Z " fill="#D5F2E9" transform="translate(342,180)"/>
<path d="M0 0 C1 3 1 3 0.375 5.0625 C-1.40232276 7.56690935 -3.1198813 8.09048883 -6 9 C-4.16172132 5.84866512 -2.24027294 2.88035092 0 0 Z " fill="#D8D8D8" transform="translate(244,492)"/>
<path d="M0 0 C0.33 0 0.66 0 1 0 C1.33 4.62 1.66 9.24 2 14 C1.01 14.33 0.02 14.66 -1 15 C-0.67 10.05 -0.34 5.1 0 0 Z " fill="#7CC0D4" transform="translate(158,474)"/>
<path d="M0 0 C2.625 0.9375 2.625 0.9375 5 2 C2.24075815 3.80411967 1.11027897 4.0127245 -2.25 3.625 C-3.1575 3.41875 -4.065 3.2125 -5 3 C-2 1 -2 1 0 0 Z " fill="#373737" transform="translate(218,454)"/>
<path d="M0 0 C0.99 0.33 1.98 0.66 3 1 C3 1.66 3 2.32 3 3 C3.99 3 4.98 3 6 3 C5.67 4.65 5.34 6.3 5 8 C2.74754119 5.31158141 1.11786042 3.35358125 0 0 Z " fill="#0B141C" transform="translate(155,445)"/>
<path d="M0 0 C3 1 3 1 5 5 C2.03 4.01 -0.94 3.02 -4 2 C-2.68 1.34 -1.36 0.68 0 0 Z " fill="#D35146" transform="translate(542,367)"/>
<path d="M0 0 C1.43836751 0.11458693 2.87570966 0.24209116 4.3125 0.375 C5.51326172 0.47941406 5.51326172 0.47941406 6.73828125 0.5859375 C9 1 9 1 12 3 C7.06729471 4.6442351 4.45975807 3.18615592 0 1 C0 0.67 0 0.34 0 0 Z " fill="#F4E4DE" transform="translate(480,350)"/>
<path d="M0 0 C0.66 0.33 1.32 0.66 2 1 C-0.31 3.31 -2.62 5.62 -5 8 C-5.66 7.34 -6.32 6.68 -7 6 C-4.69 4.02 -2.38 2.04 0 0 Z " fill="#262626" transform="translate(329,342)"/>
<path d="M0 0 C0.763125 0.20625 1.52625 0.4125 2.3125 0.625 C-1.37484758 3.08323172 -4.38449971 3.63742616 -8.6875 4.625 C-3.77052239 -0.5261194 -3.77052239 -0.5261194 0 0 Z " fill="#B5834D" transform="translate(375.6875,328.375)"/>
<path d="M0 0 C0 3 0 3 -2.5 5.6875 C-3.325 6.450625 -4.15 7.21375 -5 8 C-5.66 7.34 -6.32 6.68 -7 6 C-4.69 4.02 -2.38 2.04 0 0 Z " fill="#DFDFDF" transform="translate(290,272)"/>
<path d="M0 0 C0 0.99 0 1.98 0 3 C-1.98 3.66 -3.96 4.32 -6 5 C-6.66 4.34 -7.32 3.68 -8 3 C-2.25 0 -2.25 0 0 0 Z " fill="#F5EFDD" transform="translate(504,269)"/>
<path d="M0 0 C0.66 0.33 1.32 0.66 2 1 C1.09972412 2.03531726 0.17906965 3.05294165 -0.75 4.0625 C-1.51570313 4.91521484 -1.51570313 4.91521484 -2.296875 5.78515625 C-2.85890625 6.18605469 -3.4209375 6.58695313 -4 7 C-5.32 6.67 -6.64 6.34 -8 6 C-5.36 4.02 -2.72 2.04 0 0 Z " fill="#0E1E16" transform="translate(323,221)"/>
<path d="M0 0 C4.455 2.97 4.455 2.97 9 6 C8.01 6.495 8.01 6.495 7 7 C5.0546875 6.00390625 5.0546875 6.00390625 2.875 4.5625 C2.15054688 4.08941406 1.42609375 3.61632812 0.6796875 3.12890625 C0.12539063 2.75636719 -0.42890625 2.38382812 -1 2 C-0.67 1.34 -0.34 0.68 0 0 Z " fill="#4D4D4D" transform="translate(528,509)"/>
<path d="M0 0 C2.95183101 2.95183101 3.08663988 5.95511947 4 10 C3.34 9.67 2.68 9.34 2 9 C2 8.34 2 7.68 2 7 C1.34 7 0.68 7 0 7 C0 4.69 0 2.38 0 0 Z " fill="#D6F0F3" transform="translate(153,459)"/>
<path d="M0 0 C2.31 0.66 4.62 1.32 7 2 C3.91190305 3.76462683 2.76687864 4 -1 4 C-0.67 2.68 -0.34 1.36 0 0 Z " fill="#CB2E22" transform="translate(566,367)"/>
<path d="M0 0 C2.97 0 5.94 0 9 0 C9.33 1.32 9.66 2.64 10 4 C6.7 3.01 3.4 2.02 0 1 C0 0.67 0 0.34 0 0 Z " fill="#D54E47" transform="translate(512,358)"/>
<path d="M0 0 C1.4540625 0.0309375 1.4540625 0.0309375 2.9375 0.0625 C1.9375 2.0625 1.9375 2.0625 -1.125 3.1875 C-2.5790625 3.620625 -2.5790625 3.620625 -4.0625 4.0625 C-4.0625 0.08290816 -4.0625 0.08290816 0 0 Z " fill="#1A0E0B" transform="translate(431.0625,292.9375)"/>
<path d="M0 0 C2.64 0 5.28 0 8 0 C5.61426621 1.89213369 3.92824652 3.02391783 1 4 C0.67 2.68 0.34 1.36 0 0 Z " fill="#1B0F0B" transform="translate(451,281)"/>
<path d="M0 0 C0.66 0.99 1.32 1.98 2 3 C0.35 4.65 -1.3 6.3 -3 8 C-3.66 7.67 -4.32 7.34 -5 7 C-3.35 4.69 -1.7 2.38 0 0 Z " fill="#4E866E" transform="translate(270,261)"/>
<path d="M0 0 C0.598125 0.350625 1.19625 0.70125 1.8125 1.0625 C-0.8275 2.0525 -3.4675 3.0425 -6.1875 4.0625 C-5.8575 2.7425 -5.5275 1.4225 -5.1875 0.0625 C-2.1875 -0.9375 -2.1875 -0.9375 0 0 Z " fill="#1D0F0C" transform="translate(522.1875,252.9375)"/>
<path d="M0 0 C0.99 0.33 1.98 0.66 3 1 C0.03368051 3.47193291 -2.51236907 5.25618453 -6 7 C-4.02 4.69 -2.04 2.38 0 0 Z " fill="#4B4B4B" transform="translate(317,110)"/>
<path d="M0 0 C1.32 0 2.64 0 4 0 C4 0.99 4 1.98 4 3 C3.34 3 2.68 3 2 3 C1.67 3.99 1.34 4.98 1 6 C0 5 0 5 -0.0625 2.4375 C-0.041875 1.633125 -0.02125 0.82875 0 0 Z " fill="#F5FAF1" transform="translate(156,499)"/>
<path d="M0 0 C1.5625 1.25 1.5625 1.25 3 3 C2.6875 5.1875 2.6875 5.1875 2 7 C0.68 6.34 -0.64 5.68 -2 5 C-1.34 4.67 -0.68 4.34 0 4 C0 2.68 0 1.36 0 0 Z " fill="#4698BA" transform="translate(163,459)"/>
<path d="M0 0 C-0.99 0.33 -1.98 0.66 -3 1 C-3.33 1.66 -3.66 2.32 -4 3 C-6.31 2.67 -8.62 2.34 -11 2 C-7.00042393 -0.06874624 -4.43559483 -1.37656391 0 0 Z " fill="#20110A" transform="translate(408,322)"/>
<path d="M0 0 C0.66 0.99 1.32 1.98 2 3 C0.35 5.31 -1.3 7.62 -3 10 C-3.33 9.34 -3.66 8.68 -4 8 C-3.22265625 6.0546875 -3.22265625 6.0546875 -2.0625 3.875 C-1.49208984 2.78832031 -1.49208984 2.78832031 -0.91015625 1.6796875 C-0.60980469 1.12539063 -0.30945313 0.57109375 0 0 Z " fill="#313131" transform="translate(239,290)"/>
<path d="M0 0 C0 0.99 0 1.98 0 3 C-1.8125 4.75 -1.8125 4.75 -4 6 C-4.99 5.67 -5.98 5.34 -7 5 C-4.69 3.35 -2.38 1.7 0 0 Z " fill="#505050" transform="translate(222,283)"/>
<path d="M0 0 C1.32 0.33 2.64 0.66 4 1 C-0.75 5 -0.75 5 -3 5 C-3 4.34 -3 3.68 -3 3 C-2.34 3 -1.68 3 -1 3 C-0.67 2.01 -0.34 1.02 0 0 Z " fill="#E4A35C" transform="translate(471,282)"/>
<path d="M0 0 C0 0.99 0 1.98 0 3 C-3 5.1875 -3 5.1875 -6 7 C-6.66 6.67 -7.32 6.34 -8 6 C-5.36 4.02 -2.72 2.04 0 0 Z " fill="#101E17" transform="translate(314,228)"/>
<path d="M0 0 C0.33 0.66 0.66 1.32 1 2 C-0.98 4.97 -0.98 4.97 -3 8 C-3.99 7.67 -4.98 7.34 -6 7 C-4.02 4.69 -2.04 2.38 0 0 Z " fill="#58A482" transform="translate(302,217)"/>
<path d="M0 0 C0 0.66 0 1.32 0 2 C-2.5 3.625 -2.5 3.625 -5 5 C-5.33 3.68 -5.66 2.36 -6 1 C-3 0 -3 0 0 0 Z " fill="#0D120F" transform="translate(401,113)"/>
</svg>
