<svg xmlns="http://www.w3.org/2000/svg" viewBox="0 0 100 100">
  <!-- Li-Ning: red swooping wing/flame mark -->
  <g fill="#E31B23">
    <!-- Main large swooping wing -->
    <path d="M50,12 C72,14 90,30 90,55 C90,48 82,36 68,28 C54,20 38,22 28,32 C18,42 16,60 24,76 C14,64 10,48 16,34 C22,20 36,12 50,12 Z"/>
    <!-- Upper parallel stripe -->
    <path d="M30,36 C24,44 22,54 26,64 C20,56 20,46 26,38 C28,34 32,32 36,32 Z"/>
    <!-- Lower parallel stripe -->
    <path d="M22,48 C18,56 18,66 22,74 C16,66 16,56 20,48 C21,46 23,44 26,44 Z"/>
  </g>
</svg>
