<svg xmlns="http://www.w3.org/2000/svg" viewBox="0 0 100 100">
  <defs>
    <linearGradient id="featherGrad" x1="0" y1="0" x2="0" y2="1">
      <stop offset="0%" stop-color="#E0F5F0"/>
      <stop offset="100%" stop-color="#B8E0D8"/>
    </linearGradient>
  </defs>
  <!-- Feathered crown -->
  <path d="M50 10 L32 52 L40 48 Z" fill="url(#featherGrad)" stroke="#A8D0C8" stroke-width="0.8"/>
  <path d="M50 10 L68 52 L60 48 Z" fill="url(#featherGrad)" stroke="#A8D0C8" stroke-width="0.8"/>
  <path d="M50 10 L36 54 L44 49 Z" fill="#FFFFFF" stroke="#B8DDD5" stroke-width="0.6" opacity="0.9"/>
  <path d="M50 10 L64 54 L56 49 Z" fill="#FFFFFF" stroke="#B8DDD5" stroke-width="0.6" opacity="0.9"/>
  <path d="M50 10 L42 55 L50 50 Z" fill="url(#featherGrad)" stroke="#A8D0C8" stroke-width="0.5" opacity="0.85"/>
  <path d="M50 10 L58 55 L50 50 Z" fill="url(#featherGrad)" stroke="#A8D0C8" stroke-width="0.5" opacity="0.85"/>
  <!-- White overlay feathers for depth -->
  <path d="M50 14 L38 48 L50 44 Z" fill="#FFFFFF" opacity="0.3"/>
  <path d="M50 14 L62 48 L50 44 Z" fill="#FFFFFF" opacity="0.2"/>
  <!-- Red band -->
  <rect x="36" y="54" width="28" height="5" rx="2.5" fill="#CC3333"/>
  <rect x="37" y="55" width="26" height="2" rx="1" fill="#DD4444" opacity="0.5"/>
  <!-- Cork base -->
  <ellipse cx="50" cy="70" rx="12" ry="14" fill="#C8BEB4"/>
  <ellipse cx="50" cy="68" rx="11" ry="12" fill="#D8D0C6"/>
  <ellipse cx="50" cy="66" rx="9" ry="9" fill="#E0D8CF" opacity="0.6"/>
  <!-- Base connection -->
  <rect x="38" y="58" width="24" height="8" rx="3" fill="#D0C6BC"/>
</svg>