<svg xmlns="http://www.w3.org/2000/svg" viewBox="0 0 100 100">
  <!-- Shuttlecock base (cork) -->
  <ellipse cx="50" cy="28" rx="12" ry="10" fill="#E8E0D8" stroke="#BFAE9F" stroke-width="1.5"/>
  <!-- Feathered crown -->
  <path d="M38 32 L30 65 L50 55 Z" fill="#F5F0EB" stroke="#D5CCC3" stroke-width="0.8"/>
  <path d="M62 32 L70 65 L50 55 Z" fill="#F5F0EB" stroke="#D5CCC3" stroke-width="0.8"/>
  <path d="M44 33 L38 68 L50 56 Z" fill="#EDE8E3" stroke="#D5CCC3" stroke-width="0.8"/>
  <path d="M56 33 L62 68 L50 56 Z" fill="#EDE8E3" stroke="#D5CCC3" stroke-width="0.8"/>
  <path d="M50 34 L50 70 L44 60 Z" fill="#F0EBE6" stroke="#D5CCC3" stroke-width="0.5"/>
  <path d="M50 34 L50 70 L56 60 Z" fill="#F0EBE6" stroke="#D5CCC3" stroke-width="0.5"/>
  <!-- Flames left -->
  <path d="M28 50 Q22 35, 30 22 Q28 30, 34 38 Q30 28, 36 18 Q32 30, 38 40 L36 50 Z" fill="#FF6600" opacity="0.9"/>
  <path d="M30 48 Q26 38, 32 26 Q30 34, 36 40 L34 48 Z" fill="#CC3333" opacity="0.85"/>
  <!-- Flames right -->
  <path d="M72 50 Q78 35, 70 22 Q72 30, 66 38 Q70 28, 64 18 Q68 30, 62 40 L64 50 Z" fill="#FF6600" opacity="0.9"/>
  <path d="M70 48 Q74 38, 68 26 Q70 34, 64 40 L66 48 Z" fill="#CC3333" opacity="0.85"/>
  <!-- Flame tips (yellow highlights) -->
  <path d="M34 20 Q30 28, 36 34 Q32 26, 36 20 Z" fill="#FFAA00" opacity="0.7"/>
  <path d="M66 20 Q70 28, 64 34 Q68 26, 64 20 Z" fill="#FFAA00" opacity="0.7"/>
  <!-- Bottom flame -->
  <path d="M44 62 Q46 75, 50 82 Q54 75, 56 62 Q54 70, 50 74 Q46 70, 44 62 Z" fill="#FF6600" opacity="0.8"/>
  <path d="M46 64 Q48 73, 50 78 Q52 73, 54 64 Q52 68, 50 72 Q48 68, 46 64 Z" fill="#CC3333" opacity="0.7"/>
</svg>