<svg xmlns="http://www.w3.org/2000/svg" viewBox="0 0 100 100">
  <!-- Wilson: white W on red rounded rectangle -->
  <rect x="5" y="5" width="90" height="90" rx="12" ry="12" fill="#E31837"/>
  <!-- Bold stylized W with three humps -->
  <path d="
    M16,35
    L24,70
    C26,74 28,74 30,70
    L38,48
    C40,44 42,44 44,48
    L50,66
    C52,70 54,70 56,66
    L62,48
    C64,44 66,44 68,48
    L76,70
    C78,74 80,74 82,70
    L84,35
    L76,35
    L70,62
    C68,66 66,66 64,62
    L56,42
    C54,38 52,38 50,42
    L44,62
    C42,66 40,66 38,62
    L30,42
    C28,38 26,38 24,42
    L22,35
    Z
  " fill="white"/>
</svg>
